/* XPM */
static char * close_active_xpm[] = {
"20 24 8 1",
" 	c None",
".	c #6C6C6C",
"+	c #000000",
"@	c #3B3E3F",
"#	c #868686",
"$	c #FFFFFF",
"%	c #1A1A1A",
"&	c #4F4F4F",
"....................",
"++++++++++++++++++++",
"@@@@@@@@@@@@@@@@@@@@",
"@@@@@@@@@@@@@@@@@@@@",
"@@@@@@@@@@@@@@@@@@@@",
"@@@@@@@@@@@@@@@@@@@@",
"@@@@@@@@@@@@@@@@@@@@",
"@@@@@@@@@@@@@@@@@@@@",
"@@@@@@@@@@@@@@@@@@@@",
"@@@@@@##@@@@##@@@@@@",
"@@@@@@$$#@@#$$@@@@@@",
"@@@@@@%$$##$$%@@@@@@",
"@@@@@@@%$$$$%@@@@@@@",
"@@@@@@@@&$$&@@@@@@@@",
"@@@@@@@#$$$$#@@@@@@@",
"@@@@@@#$$%%$$#@@@@@@",
"@@@@@@$$%@@%$$@@@@@@",
"@@@@@@%%@@@@%%@@@@@@",
"@@@@@@@@@@@@@@@@@@@@",
"@@@@@@@@@@@@@@@@@@@@",
"@@@@@@@@@@@@@@@@@@@@",
"@@@@@@@@@@@@@@@@@@@@",
"@@@@@@@@@@@@@@@@@@@@",
"@@@@@@@@@@@@@@@@@@@@"};
