/* XPM */
static char * close_inactive_xpm[] = {
"20 24 5 1",
" 	c #1D2123",
".	c #414344",
"+	c #3B3E3F",
"@	c #BABAB3",
"#	c #25282A",
"                    ",
"....................",
"++++++++++++++++++++",
"++++++++++++++++++++",
"++++++++++++++++++++",
"++++++++++++++++++++",
"++++++++++++++++++++",
"++++++++++++++++++++",
"++++++++++++++++++++",
"++++++@@++++@@++++++",
"++++++@@@++@@@++++++",
"+++++++@@@@@@+++++++",
"++++++++@@@@++++++++",
"++++++++@@@@++++++++",
"+++++++@@@@@@+++++++",
"++++++@@@++@@@++++++",
"++++++@@++++@@++++++",
"++++++++++++++++++++",
"++++++++++++++++++++",
"++++++++++++++++++++",
"++++++++++++++++++++",
"++++++++++++++++++++",
"++++++++++++++++++++",
"####################"};
