/* XPM */
static char * maximize_active_xpm[] = {
"20 24 7 1",
" 	c None",
".	c #6C6C6C",
"+	c #000000",
"@	c #3B3E3F",
"#	c #8F8F8F",
"$	c #FFFFFF",
"%	c #151515",
"....................",
"++++++++++++++++++++",
"@@@@@@@@@@@@@@@@@@@@",
"@@@@@@@@@@@@@@@@@@@@",
"@@@@@@@@@@@@@@@@@@@@",
"@@@@@@@@@@@@@@@@@@@@",
"@@@@@@@@@@@@@@@@@@@@",
"@@@@@@@@@@@@@@@@@@@@",
"@@@@@@@@@@@@@@@@@@@@",
"@@@@@@@@@##@@@@@@@@@",
"@@@@@@@@@$$@@@@@@@@@",
"@@@@@@@@@$$@@@@@@@@@",
"@@@@@@###$$###@@@@@@",
"@@@@@@$$$$$$$$@@@@@@",
"@@@@@@%%%$$%%%@@@@@@",
"@@@@@@@@@$$@@@@@@@@@",
"@@@@@@@@@$$@@@@@@@@@",
"@@@@@@@@@%%@@@@@@@@@",
"@@@@@@@@@@@@@@@@@@@@",
"@@@@@@@@@@@@@@@@@@@@",
"@@@@@@@@@@@@@@@@@@@@",
"@@@@@@@@@@@@@@@@@@@@",
"@@@@@@@@@@@@@@@@@@@@",
"@@@@@@@@@@@@@@@@@@@@"};
