/* XPM */
static char * menu_inactive_xpm[] = {
"20 24 21 1",
" 	c None",
".	c #6C6C6C",
"+	c #000000",
"@	c #3C4041",
"#	c #3D3D3D",
"$	c #4B4B4B",
"%	c #3B3B3B",
"&	c #181818",
"*	c #333333",
"=	c #303030",
"-	c #202020",
";	c #363636",
">	c #383838",
",	c #323232",
"'	c #161616",
")	c #1F1F1F",
"!	c #1C1C1C",
"~	c #343434",
"{	c #232323",
"]	c #1A1A1A",
"^	c #1E1E1E",
"....................",
"++++++++++++++++++++",
"@@@@@@@@@@@@@@@@@@@@",
"@@@@@@@@@@@@@@@@@@@@",
"@@@@@@@@@@@@@@@@@@@@",
"@@@@@@@@@@@@@@@@@@@@",
"@@@@@@@@@@@@@@@@@@@@",
"@@@@@@@@@@@@@@@@@@@@",
"@@@@@@@@@@@@@@@@@@@@",
"@@@@@@@@@@@@@@@@@@@@",
"@@@@@@@@@@@@@@@@@@@@",
"@@@@@@#$$$$$$%@@@@@@",
"@@@@@@&*%%%%=&@@@@@@",
"@@@@@@-&;>>,'@@@@@@@",
"@@@@@@@)!~,&-@@@@@@@",
"@@@@@@@@!{]^@@@@@@@@",
"@@@@@@@@@&!@@@@@@@@@",
"@@@@@@@@@@@@@@@@@@@@",
"@@@@@@@@@@@@@@@@@@@@",
"@@@@@@@@@@@@@@@@@@@@",
"@@@@@@@@@@@@@@@@@@@@",
"@@@@@@@@@@@@@@@@@@@@",
"@@@@@@@@@@@@@@@@@@@@",
"@@@@@@@@@@@@@@@@@@@@"};
