/* XPM */
static char * shade_inactive_xpm[] = {
"20 24 14 1",
" 	c None",
".	c #727272",
"+	c #000000",
"@	c #3C4041",
"#	c #353535",
"$	c #333333",
"%	c #363636",
"&	c #393939",
"*	c #323232",
"=	c #3B3B3B",
"-	c #303030",
";	c #4A4A4A",
">	c #3A3A3A",
",	c #151515",
"....................",
"++++++++++++++++++++",
"@@@@@@@@@@@@@@@@@@@@",
"@@@@@@@@@@@@@@@@@@@@",
"@@@@@@@@@@@@@@@@@@@@",
"@@@@@@@@@@@@@@@@@@@@",
"@@@@@@@@@@@@@@@@@@@@",
"@@@@@@@@@@@@@@@@@@@@",
"@@@@@@@@@@@@@@@@@@@@",
"@@@@@@@@@#$@@@@@@@@@",
"@@@@@@@@%&&*@@@@@@@@",
"@@@@@@@$=&&=-@@@@@@@",
"@@@@@@=;>&&>;>@@@@@@",
"@@@@@@,,,&&,,,@@@@@@",
"@@@@@@@@@&&@@@@@@@@@",
"@@@@@@@@@&&@@@@@@@@@",
"@@@@@@@@@--@@@@@@@@@",
"@@@@@@@@@,,@@@@@@@@@",
"@@@@@@@@@@@@@@@@@@@@",
"@@@@@@@@@@@@@@@@@@@@",
"@@@@@@@@@@@@@@@@@@@@",
"@@@@@@@@@@@@@@@@@@@@",
"@@@@@@@@@@@@@@@@@@@@",
"@@@@@@@@@@@@@@@@@@@@"};
