/* XPM */
static char * shade_toggled_inactive_xpm[] = {
"20 24 19 1",
" 	c None",
".	c #727272",
"+	c #000000",
"@	c #3B3E3F",
"#	c #303030",
"$	c #393939",
"%	c #3B3B3B",
"&	c #4A4A4A",
"*	c #3A3A3A",
"=	c #181818",
"-	c #333333",
";	c #191919",
">	c #363636",
",	c #323232",
"'	c #171717",
")	c #1C1C1C",
"!	c #353535",
"~	c #242424",
"{	c #1B1B1B",
"....................",
"++++++++++++++++++++",
"@@@@@@@@@@@@@@@@@@@@",
"@@@@@@@@@@@@@@@@@@@@",
"@@@@@@@@@@@@@@@@@@@@",
"@@@@@@@@@@@@@@@@@@@@",
"@@@@@@@@@@@@@@@@@@@@",
"@@@@@@@@@@@@@@@@@@@@",
"@@@@@@@@@@@@@@@@@@@@",
"@@@@@@@@@##@@@@@@@@@",
"@@@@@@@@@$$@@@@@@@@@",
"@@@@@@@@@$$@@@@@@@@@",
"@@@@@@@@@$$@@@@@@@@@",
"@@@@@@%&*$$*&*@@@@@@",
"@@@@@@=-%$$%#=@@@@@@",
"@@@@@@@;>$$,'@@@@@@@",
"@@@@@@@@)!-;@@@@@@@@",
"@@@@@@@@@~{@@@@@@@@@",
"@@@@@@@@@@@@@@@@@@@@",
"@@@@@@@@@@@@@@@@@@@@",
"@@@@@@@@@@@@@@@@@@@@",
"@@@@@@@@@@@@@@@@@@@@",
"@@@@@@@@@@@@@@@@@@@@",
"@@@@@@@@@@@@@@@@@@@@"};
