/* XPM */
static char * stick_inactive_xpm[] = {
"20 24 24 1",
" 	c None",
".	c #727272",
"+	c #000000",
"@	c #3C4041",
"#	c #434343",
"$	c #434242",
"%	c #434243",
"&	c #424343",
"*	c #40403F",
"=	c #3F3F40",
"-	c #131313",
";	c #403F3F",
">	c #404040",
",	c #3D3D3D",
"'	c #3C3D3D",
")	c #3A3A3A",
"!	c #3A3A39",
"~	c #363637",
"{	c #373637",
"]	c #373737",
"^	c #363737",
"/	c #343334",
"(	c #343434",
"_	c #313131",
"....................",
"++++++++++++++++++++",
"@@@@@@@@@@@@@@@@@@@@",
"@@@@@@@@@@@@@@@@@@@@",
"@@@@@@@@@@@@@@@@@@@@",
"@@@@@@@@@@@@@@@@@@@@",
"@@@@@@@@@@@@@@@@@@@@",
"@@@@@@@@@@@@@@@@@@@@",
"@@@@@@@@@@@@@@@@@@@@",
"@@@@@@@@####@@@@@@@@",
"@@@@@@@$%#%&#@@@@@@@",
"@@@@@@*=----;>@@@@@@",
"@@@@@@,,@@@@''@@@@@@",
"@@@@@@)!@@@@!!@@@@@@",
"@@@@@@~{@@@@]^@@@@@@",
"@@@@@@-//(((/-@@@@@@",
"@@@@@@@-____-@@@@@@@",
"@@@@@@@@----@@@@@@@@",
"@@@@@@@@@@@@@@@@@@@@",
"@@@@@@@@@@@@@@@@@@@@",
"@@@@@@@@@@@@@@@@@@@@",
"@@@@@@@@@@@@@@@@@@@@",
"@@@@@@@@@@@@@@@@@@@@",
"@@@@@@@@@@@@@@@@@@@@"};
