/* XPM */
static char * stick_toggled_prelight_xpm[] = {
"20 24 10 1",
" 	c #1D2123",
".	c #414344",
"+	c #3B3E3F",
"@	c #BCBCBC",
"#	c #131313",
"$	c #B6B6B6",
"%	c #B3B3B3",
"&	c #AFAFAF",
"*	c #A6A6A6",
"=	c #25282A",
"                    ",
"....................",
"++++++++++++++++++++",
"++++++++++++++++++++",
"++++++++++++++++++++",
"++++++++++++++++++++",
"++++++++++++++++++++",
"++++++++++++++++++++",
"++++++++++++@+++++++",
"++++++++@@++@@++++++",
"+++++++@@@+@@@@+++++",
"++++++@@##+@@##+++++",
"++++++$$++$##+++++++",
"++++++%%++#+%%++++++",
"++++++&&++++&&++++++",
"++++++#******#++++++",
"+++++++#****#+++++++",
"++++++++####++++++++",
"++++++++++++++++++++",
"++++++++++++++++++++",
"++++++++++++++++++++",
"++++++++++++++++++++",
"++++++++++++++++++++",
"===================="};
