/* XPM */
static char * title_5_active_xpm[] = {
"2 24 5 1",
" 	c #1D2123",
".	c #414344",
"+	c #3B3E3F",
"@	c #3A3D3E",
"#	c #25282A",
"  ",
"..",
"++",
"++",
"++",
"++",
"++",
"++",
"++",
"++",
"++",
"++",
"++",
"++",
"++",
"++",
"++",
"++",
"++",
"++",
"++",
"++",
"@@",
"##"};
