/* XPM */
static char * close_inactive_xpm[] = {
"40 48 17 1",
" 	c None",
".	c #939393",
"+	c #FFFFFF",
"@	c #DEDEDE s active_color_2",
"#	c #CACACA",
"$	c #BBBBBB",
"%	c #ADADAD",
"&	c #BFBFBF",
"*	c #D5D5D5",
"=	c #CFCFCF",
"-	c #EDEDED",
";	c #ECECEC",
">	c #E7E7E7",
",	c #EEEEEE",
"'	c #E8E8E8",
")	c #D1D1D1",
"!	c #E6E6E6",
"........................................",
"++++++++++++++++++++++++++++++++++++++++",
"@@@@@@@@@@@@@@@@@@@@@@@@@@@@@@@@@@@@@@@@",
"@@@@@@@@@@@@@@@@@@@@@@@@@@@@@@@@@@@@@@@@",
"@@@@@@@@@@@@@@@@@@@@@@@@@@@@@@@@@@@@@@@@",
"@@@@@@@@@@@@@@@@@@@@@@@@@@@@@@@@@@@@@@@@",
"@@@@@@@@@@@@@@@@@@@@@@@@@@@@@@@@@@@@@@@@",
"@@@@@@@@@@@@@@@@@@@@@@@@@@@@@@@@@@@@@@@@",
"@@@@@@@@@@@@@@@@@@@@@@@@@@@@@@@@@@@@@@@@",
"@@@@@@@@@@@@@@@@@@@@@@@@@@@@@@@@@@@@@@@@",
"@@@@@@@@@@@@@@@@@@@@@@@@@@@@@@@@@@@@@@@@",
"@@@@@@@@@@@@@@@@@@@@@@@@@@@@@@@@@@@@@@@@",
"@@@@@@@@@@@@@@@@@@@@@@@@@@@@@@@@@@@@@@@@",
"@@@@@@@@@@@@@@@@@@@@@@@@@@@@@@@@@@@@@@@@",
"@@@@@@@@@@@@@@@@@@@@@@@@@@@@@@@@@@@@@@@@",
"@@@@@@@@@@@@@@@@@@@@@@@@@@@@@@@@@@@@@@@@",
"@@@@@@@@@@@@@@@@@@@@@@@@@@@@@@@@@@@@@@@@",
"@@@@@@@@@@@@#$%@@@@@@@@@@%$#@@@@@@@@@@@@",
"@@@@@@@@@@@@#&$%@@@@@@@@%$&#@@@@@@@@@@@@",
"@@@@@@@@@@@@###$%@@@@@@%$###@@@@@@@@@@@@",
"@@@@@@@@@@@@####$%@@@@%$####@@@@@@@@@@@@",
"@@@@@@@@@@@@*####$%@@%$###=*@@@@@@@@@@@@",
"@@@@@@@@@@@@-*=###$%%$###=*;@@@@@@@@@@@@",
"@@@@@@@@@@@@>,*=###$$###=*->@@@@@@@@@@@@",
"@@@@@@@@@@@@@>,*=######=*-'@@@@@@@@@@@@@",
"@@@@@@@@@@@@@@>,*=####=*-'@@@@@@@@@@@@@@",
"@@@@@@@@@@@@@@@>*=####=)'@@@@@@@@@@@@@@@",
"@@@@@@@@@@@@@@@%$######$%@@@@@@@@@@@@@@@",
"@@@@@@@@@@@@@@%$###==###$%@@@@@@@@@@@@@@",
"@@@@@@@@@@@@@%$###=**=###$%@@@@@@@@@@@@@",
"@@@@@@@@@@@@%$###=*-,*=###$%@@@@@@@@@@@@",
"@@@@@@@@@@@@$###=*-'>,*=###$@@@@@@@@@@@@",
"@@@@@@@@@@@@###=*-'@@>-*=###@@@@@@@@@@@@",
"@@@@@@@@@@@@##=*-'@@@@>-*=##@@@@@@@@@@@@",
"@@@@@@@@@@@@#=*-'@@@@@@'-*=#@@@@@@@@@@@@",
"@@@@@@@@@@@@-,,'@@@@@@@@',,-@@@@@@@@@@@@",
"@@@@@@@@@@@@!->@@@@@@@@@@>-!@@@@@@@@@@@@",
"@@@@@@@@@@@@@@@@@@@@@@@@@@@@@@@@@@@@@@@@",
"@@@@@@@@@@@@@@@@@@@@@@@@@@@@@@@@@@@@@@@@",
"@@@@@@@@@@@@@@@@@@@@@@@@@@@@@@@@@@@@@@@@",
"@@@@@@@@@@@@@@@@@@@@@@@@@@@@@@@@@@@@@@@@",
"@@@@@@@@@@@@@@@@@@@@@@@@@@@@@@@@@@@@@@@@",
"@@@@@@@@@@@@@@@@@@@@@@@@@@@@@@@@@@@@@@@@",
"@@@@@@@@@@@@@@@@@@@@@@@@@@@@@@@@@@@@@@@@",
"@@@@@@@@@@@@@@@@@@@@@@@@@@@@@@@@@@@@@@@@",
"@@@@@@@@@@@@@@@@@@@@@@@@@@@@@@@@@@@@@@@@",
"@@@@@@@@@@@@@@@@@@@@@@@@@@@@@@@@@@@@@@@@",
"@@@@@@@@@@@@@@@@@@@@@@@@@@@@@@@@@@@@@@@@"};
