/* XPM */
static char * close_pressed_xpm[] = {
"40 48 108 2",
"  	c None",
". 	c #939393",
"+ 	c #FFFFFF",
"@ 	c #DEDEDE s active_color_2",
"# 	c #C7CFD8",
"$ 	c #89A6C6",
"% 	c #C4CDD7",
"& 	c #C3CCD6",
"* 	c #88A5C6",
"= 	c #3C74B0",
"- 	c #1F61A9",
"; 	c #2D6AAC",
"> 	c #B9C6D3",
", 	c #B8C5D3",
"' 	c #2C69AC",
") 	c #3D75B1",
"! 	c #3E7AB8",
"~ 	c #407FBF",
"{ 	c #3473B6",
"] 	c #2E6AAD",
"^ 	c #2D69AD",
"/ 	c #3373B7",
"( 	c #407EC0",
"_ 	c #4B86C4",
": 	c #4583C3",
"< 	c #3676B9",
"[ 	c #4B87C4",
"} 	c #8AAED3",
"| 	c #4685C5",
"1 	c #3777BB",
"2 	c #2B68AD",
"3 	c #B5C3D2",
"4 	c #BAC6D4",
"5 	c #3777BA",
"6 	c #8CAFD3",
"7 	c #ECEDED",
"8 	c #8CB1D7",
"9 	c #4887C8",
"0 	c #3979BC",
"a 	c #2D6BAC",
"b 	c #3878BB",
"c 	c #87AED6",
"d 	c #ECECED",
"e 	c #E7E7E7",
"f 	c #EDEEEE",
"g 	c #8EB3D9",
"h 	c #4A89CA",
"i 	c #3A7ABD",
"j 	c #2A67AC",
"k 	c #2A69AC",
"l 	c #3979BD",
"m 	c #89AFD7",
"n 	c #EDEDEE",
"o 	c #8FB4DB",
"p 	c #4C8BCD",
"q 	c #3B7CBF",
"r 	c #3A7ABE",
"s 	c #8AB1D9",
"t 	c #E8E8E8",
"u 	c #8FB5DC",
"v 	c #4E8DCF",
"w 	c #8BB2DA",
"x 	c #C7D4E1",
"y 	c #4281C2",
"z 	c #508FD1",
"A 	c #4281C3",
"B 	c #C2D0DF",
"C 	c #2E6CAD",
"D 	c #3E7EC3",
"E 	c #5292D4",
"F 	c #407FC3",
"G 	c #2C69AD",
"H 	c #3F80C4",
"I 	c #5494D6",
"J 	c #4081C5",
"K 	c #5696D8",
"L 	c #90B8E0",
"M 	c #95BAE1",
"N 	c #4182C6",
"O 	c #4181C7",
"P 	c #5898DB",
"Q 	c #92B9E2",
"R 	c #96BAE3",
"S 	c #4383C8",
"T 	c #3B75B0",
"U 	c #4283C8",
"V 	c #5A9ADD",
"W 	c #92B9E3",
"X 	c #97BDE4",
"Y 	c #4485CA",
"Z 	c #3B73B1",
"` 	c #4E8ACB",
" .	c #5C9CE0",
"..	c #94BBE5",
"+.	c #95BCE5",
"@.	c #4F8BCC",
"#.	c #63A1E0",
"$.	c #5D9EE2",
"%.	c #94BCE6",
"&.	c #96BDE6",
"*.	c #A4C3E6",
"=.	c #6AA6E4",
"-.	c #9CC1E8",
";.	c #9EC2E8",
">.	c #6AA5E4",
",.	c #EDEDED",
"'.	c #EEEEEE",
").	c #E6E6E6",
". . . . . . . . . . . . . . . . . . . . . . . . . . . . . . . . . . . . . . . . ",
"+ + + + + + + + + + + + + + + + + + + + + + + + + + + + + + + + + + + + + + + + ",
"@ @ @ @ @ @ @ @ @ @ @ @ @ @ @ @ @ @ @ @ @ @ @ @ @ @ @ @ @ @ @ @ @ @ @ @ @ @ @ @ ",
"@ @ @ @ @ @ @ @ @ @ @ @ @ @ @ @ @ @ @ @ @ @ @ @ @ @ @ @ @ @ @ @ @ @ @ @ @ @ @ @ ",
"@ @ @ @ @ @ @ @ @ @ @ @ @ @ @ @ @ @ @ @ @ @ @ @ @ @ @ @ @ @ @ @ @ @ @ @ @ @ @ @ ",
"@ @ @ @ @ @ @ @ @ @ @ @ @ @ @ @ @ @ @ @ @ @ @ @ @ @ @ @ @ @ @ @ @ @ @ @ @ @ @ @ ",
"@ @ @ @ @ @ @ @ @ @ @ @ @ @ @ @ @ @ @ @ @ @ @ @ @ @ @ @ @ @ @ @ @ @ @ @ @ @ @ @ ",
"@ @ @ @ @ @ @ @ @ @ @ @ @ @ @ @ @ @ @ @ @ @ @ @ @ @ @ @ @ @ @ @ @ @ @ @ @ @ @ @ ",
"@ @ @ @ @ @ @ @ @ @ @ @ @ @ @ @ @ @ @ @ @ @ @ @ @ @ @ @ @ @ @ @ @ @ @ @ @ @ @ @ ",
"@ @ @ @ @ @ @ @ @ @ @ @ @ @ @ @ @ @ @ @ @ @ @ @ @ @ @ @ @ @ @ @ @ @ @ @ @ @ @ @ ",
"@ @ @ @ @ @ @ @ @ @ @ @ @ @ @ @ @ @ @ @ @ @ @ @ @ @ @ @ @ @ @ @ @ @ @ @ @ @ @ @ ",
"@ @ @ @ @ @ @ @ @ @ @ @ @ @ @ @ @ @ @ @ @ @ @ @ @ @ @ @ @ @ @ @ @ @ @ @ @ @ @ @ ",
"@ @ @ @ @ @ @ @ @ @ @ @ @ @ @ @ @ @ @ @ @ @ @ @ @ @ @ @ @ @ @ @ @ @ @ @ @ @ @ @ ",
"@ @ @ @ @ @ @ @ @ @ @ @ @ @ @ @ @ @ @ @ @ @ @ @ @ @ @ @ @ @ @ @ @ @ @ @ @ @ @ @ ",
"@ @ @ @ @ @ @ @ @ @ @ @ @ @ @ @ @ @ @ @ @ @ @ @ @ @ @ @ @ @ @ @ @ @ @ @ @ @ @ @ ",
"@ @ @ @ @ @ @ @ @ @ @ @ @ @ @ @ @ @ @ @ @ @ @ @ @ @ @ @ @ @ @ @ @ @ @ @ @ @ @ @ ",
"@ @ @ @ @ @ @ @ @ @ @ @ @ @ @ @ @ @ @ @ @ @ @ @ @ @ @ @ @ @ @ @ @ @ @ @ @ @ @ @ ",
"@ @ @ @ @ @ @ @ @ @ @ @ # $ % @ @ @ @ @ @ @ @ @ @ & * # @ @ @ @ @ @ @ @ @ @ @ @ ",
"@ @ @ @ @ @ @ @ @ @ @ @ = - ; > @ @ @ @ @ @ @ @ , ' - ) @ @ @ @ @ @ @ @ @ @ @ @ ",
"@ @ @ @ @ @ @ @ @ @ @ @ ! ~ { ] > @ @ @ @ @ @ , ^ / ( ! @ @ @ @ @ @ @ @ @ @ @ @ ",
"@ @ @ @ @ @ @ @ @ @ @ @ _ : : < ] > @ @ @ @ , ^ < : : [ @ @ @ @ @ @ @ @ @ @ @ @ ",
"@ @ @ @ @ @ @ @ @ @ @ @ } | | | 1 2 3 @ @ 4 ] 5 | | | 6 @ @ @ @ @ @ @ @ @ @ @ @ ",
"@ @ @ @ @ @ @ @ @ @ @ @ 7 8 9 9 9 0 2 3 4 a b 9 9 9 c d @ @ @ @ @ @ @ @ @ @ @ @ ",
"@ @ @ @ @ @ @ @ @ @ @ @ e f g h h h i j k l h h h m n e @ @ @ @ @ @ @ @ @ @ @ @ ",
"@ @ @ @ @ @ @ @ @ @ @ @ @ e f o p p p q r p p p s n t @ @ @ @ @ @ @ @ @ @ @ @ @ ",
"@ @ @ @ @ @ @ @ @ @ @ @ @ @ e f u v v v v v v w n t @ @ @ @ @ @ @ @ @ @ @ @ @ @ ",
"@ @ @ @ @ @ @ @ @ @ @ @ @ @ @ e x y z z z z A B t @ @ @ @ @ @ @ @ @ @ @ @ @ @ @ ",
"@ @ @ @ @ @ @ @ @ @ @ @ @ @ @ 4 C D E E E E F G 3 @ @ @ @ @ @ @ @ @ @ @ @ @ @ @ ",
"@ @ @ @ @ @ @ @ @ @ @ @ @ @ 4 a H I I I I I I J 2 3 @ @ @ @ @ @ @ @ @ @ @ @ @ @ ",
"@ @ @ @ @ @ @ @ @ @ @ @ @ 4 a J K K K L M K K K N 2 3 @ @ @ @ @ @ @ @ @ @ @ @ @ ",
"@ @ @ @ @ @ @ @ @ @ @ @ 4 a O P P P Q n f R P P P S ^ , @ @ @ @ @ @ @ @ @ @ @ @ ",
"@ @ @ @ @ @ @ @ @ @ @ @ T U V V V W n t e f X V V V Y Z @ @ @ @ @ @ @ @ @ @ @ @ ",
"@ @ @ @ @ @ @ @ @ @ @ @ `  . . ...n t @ @ e n +. . . .@.@ @ @ @ @ @ @ @ @ @ @ @ ",
"@ @ @ @ @ @ @ @ @ @ @ @ #.$.$.%.n t @ @ @ @ e n &.$.$.#.@ @ @ @ @ @ @ @ @ @ @ @ ",
"@ @ @ @ @ @ @ @ @ @ @ @ *.=.-.n t @ @ @ @ @ @ t n ;.>.*.@ @ @ @ @ @ @ @ @ @ @ @ ",
"@ @ @ @ @ @ @ @ @ @ @ @ ,.'.'.t @ @ @ @ @ @ @ @ t '.'.,.@ @ @ @ @ @ @ @ @ @ @ @ ",
"@ @ @ @ @ @ @ @ @ @ @ @ ).,.e @ @ @ @ @ @ @ @ @ @ e ,.).@ @ @ @ @ @ @ @ @ @ @ @ ",
"@ @ @ @ @ @ @ @ @ @ @ @ @ @ @ @ @ @ @ @ @ @ @ @ @ @ @ @ @ @ @ @ @ @ @ @ @ @ @ @ ",
"@ @ @ @ @ @ @ @ @ @ @ @ @ @ @ @ @ @ @ @ @ @ @ @ @ @ @ @ @ @ @ @ @ @ @ @ @ @ @ @ ",
"@ @ @ @ @ @ @ @ @ @ @ @ @ @ @ @ @ @ @ @ @ @ @ @ @ @ @ @ @ @ @ @ @ @ @ @ @ @ @ @ ",
"@ @ @ @ @ @ @ @ @ @ @ @ @ @ @ @ @ @ @ @ @ @ @ @ @ @ @ @ @ @ @ @ @ @ @ @ @ @ @ @ ",
"@ @ @ @ @ @ @ @ @ @ @ @ @ @ @ @ @ @ @ @ @ @ @ @ @ @ @ @ @ @ @ @ @ @ @ @ @ @ @ @ ",
"@ @ @ @ @ @ @ @ @ @ @ @ @ @ @ @ @ @ @ @ @ @ @ @ @ @ @ @ @ @ @ @ @ @ @ @ @ @ @ @ ",
"@ @ @ @ @ @ @ @ @ @ @ @ @ @ @ @ @ @ @ @ @ @ @ @ @ @ @ @ @ @ @ @ @ @ @ @ @ @ @ @ ",
"@ @ @ @ @ @ @ @ @ @ @ @ @ @ @ @ @ @ @ @ @ @ @ @ @ @ @ @ @ @ @ @ @ @ @ @ @ @ @ @ ",
"@ @ @ @ @ @ @ @ @ @ @ @ @ @ @ @ @ @ @ @ @ @ @ @ @ @ @ @ @ @ @ @ @ @ @ @ @ @ @ @ ",
"@ @ @ @ @ @ @ @ @ @ @ @ @ @ @ @ @ @ @ @ @ @ @ @ @ @ @ @ @ @ @ @ @ @ @ @ @ @ @ @ ",
"@ @ @ @ @ @ @ @ @ @ @ @ @ @ @ @ @ @ @ @ @ @ @ @ @ @ @ @ @ @ @ @ @ @ @ @ @ @ @ @ "};
