/* XPM */
static char * close_active_xpm[] = {
"40 48 47 1",
" 	c None",
".	c #939393",
"+	c #FFFFFF",
"@	c #DEDEDE s active_color_2",
"#	c #D0D0D0",
"$	c #AAAAAA",
"%	c #CECECE",
"&	c #7D7D7D",
"*	c #6B6B6B",
"=	c #737373",
"-	c #C8C8C8",
";	c #C7C7C7",
">	c #818181",
",	c #848484",
"'	c #7B7B7B",
")	c #858585",
"!	c #8A8A8A",
"~	c #878787",
"{	c #7C7C7C",
"]	c #8B8B8B",
"^	c #AFAFAF",
"/	c #727272",
"(	c #C5C5C5",
"_	c #B0B0B0",
":	c #EDEDED",
"<	c #B1B1B1",
"[	c #747474",
"}	c #AEAEAE",
"|	c #ECECEC",
"1	c #E7E7E7",
"2	c #EEEEEE",
"3	c #6F6F6F",
"4	c #7E7E7E",
"5	c #E8E8E8",
"6	c #D6D6D6",
"7	c #808080",
"8	c #7F7F7F",
"9	c #D1D1D1",
"0	c #757575",
"a	c #C6C6C6",
"b	c #7A7A7A",
"c	c #828282",
"d	c #B7B7B7",
"e	c #8E8E8E",
"f	c #B3B3B3",
"g	c #B4B4B4",
"h	c #E6E6E6",
"........................................",
"++++++++++++++++++++++++++++++++++++++++",
"@@@@@@@@@@@@@@@@@@@@@@@@@@@@@@@@@@@@@@@@",
"@@@@@@@@@@@@@@@@@@@@@@@@@@@@@@@@@@@@@@@@",
"@@@@@@@@@@@@@@@@@@@@@@@@@@@@@@@@@@@@@@@@",
"@@@@@@@@@@@@@@@@@@@@@@@@@@@@@@@@@@@@@@@@",
"@@@@@@@@@@@@@@@@@@@@@@@@@@@@@@@@@@@@@@@@",
"@@@@@@@@@@@@@@@@@@@@@@@@@@@@@@@@@@@@@@@@",
"@@@@@@@@@@@@@@@@@@@@@@@@@@@@@@@@@@@@@@@@",
"@@@@@@@@@@@@@@@@@@@@@@@@@@@@@@@@@@@@@@@@",
"@@@@@@@@@@@@@@@@@@@@@@@@@@@@@@@@@@@@@@@@",
"@@@@@@@@@@@@@@@@@@@@@@@@@@@@@@@@@@@@@@@@",
"@@@@@@@@@@@@@@@@@@@@@@@@@@@@@@@@@@@@@@@@",
"@@@@@@@@@@@@@@@@@@@@@@@@@@@@@@@@@@@@@@@@",
"@@@@@@@@@@@@@@@@@@@@@@@@@@@@@@@@@@@@@@@@",
"@@@@@@@@@@@@@@@@@@@@@@@@@@@@@@@@@@@@@@@@",
"@@@@@@@@@@@@@@@@@@@@@@@@@@@@@@@@@@@@@@@@",
"@@@@@@@@@@@@#$%@@@@@@@@@@%$#@@@@@@@@@@@@",
"@@@@@@@@@@@@&*=-@@@@@@@@;=*&@@@@@@@@@@@@",
"@@@@@@@@@@@@>,'=-@@@@@@;=')>@@@@@@@@@@@@",
"@@@@@@@@@@@@!~~&=-@@@@;={~~]@@@@@@@@@@@@",
"@@@@@@@@@@@@^~~~&/(@@-={~~~_@@@@@@@@@@@@",
"@@@@@@@@@@@@:<~~~&/(-[{~~~}|@@@@@@@@@@@@",
"@@@@@@@@@@@@12<~~~&3/{~~~}:1@@@@@@@@@@@@",
"@@@@@@@@@@@@@12<~~~4{~~~}:5@@@@@@@@@@@@@",
"@@@@@@@@@@@@@@12<~~~~~~}:5@@@@@@@@@@@@@@",
"@@@@@@@@@@@@@@@167~~~~895@@@@@@@@@@@@@@@",
"@@@@@@@@@@@@@@@-0{~~~~&/a@@@@@@@@@@@@@@@",
"@@@@@@@@@@@@@@-[{~~~~~~&/(@@@@@@@@@@@@@@",
"@@@@@@@@@@@@@-[{~~~}<~~~&/(@@@@@@@@@@@@@",
"@@@@@@@@@@@@-['~~~}:2<~~~&=;@@@@@@@@@@@@",
"@@@@@@@@@@@@{'~~~}:512<~~~{b@@@@@@@@@@@@",
"@@@@@@@@@@@@c~~~}:5@@1:^~~~c@@@@@@@@@@@@",
"@@@@@@@@@@@@]~~}:5@@@@1:^~~]@@@@@@@@@@@@",
"@@@@@@@@@@@@def:5@@@@@@5:ged@@@@@@@@@@@@",
"@@@@@@@@@@@@:225@@@@@@@@522:@@@@@@@@@@@@",
"@@@@@@@@@@@@h:1@@@@@@@@@@1:h@@@@@@@@@@@@",
"@@@@@@@@@@@@@@@@@@@@@@@@@@@@@@@@@@@@@@@@",
"@@@@@@@@@@@@@@@@@@@@@@@@@@@@@@@@@@@@@@@@",
"@@@@@@@@@@@@@@@@@@@@@@@@@@@@@@@@@@@@@@@@",
"@@@@@@@@@@@@@@@@@@@@@@@@@@@@@@@@@@@@@@@@",
"@@@@@@@@@@@@@@@@@@@@@@@@@@@@@@@@@@@@@@@@",
"@@@@@@@@@@@@@@@@@@@@@@@@@@@@@@@@@@@@@@@@",
"@@@@@@@@@@@@@@@@@@@@@@@@@@@@@@@@@@@@@@@@",
"@@@@@@@@@@@@@@@@@@@@@@@@@@@@@@@@@@@@@@@@",
"@@@@@@@@@@@@@@@@@@@@@@@@@@@@@@@@@@@@@@@@",
"@@@@@@@@@@@@@@@@@@@@@@@@@@@@@@@@@@@@@@@@",
"@@@@@@@@@@@@@@@@@@@@@@@@@@@@@@@@@@@@@@@@"};
