/* XPM */
static char * close_prelight_xpm[] = {
"40 48 45 1",
" 	c None",
".	c #939393",
"+	c #FFFFFF",
"@	c #DEDEDE s active_color_2",
"#	c #CCCCCC",
"$	c #9C9C9C",
"%	c #CACACA",
"&	c #C9C9C9",
"*	c #626262",
"=	c #4B4B4B",
"-	c #555555",
";	c #C1C1C1",
">	c #646464",
",	c #5A5A5A",
"'	c #6B6B6B",
")	c #666666",
"!	c #5B5B5B",
"~	c #5C5C5C",
"{	c #6C6C6C",
"]	c #545454",
"^	c #BFBFBF",
"/	c #C2C2C2",
"(	c #9E9E9E",
"_	c #ECECEC",
":	c #9D9D9D",
"<	c #9A9A9A",
"[	c #E7E7E7",
"}	c #EDEDED",
"|	c #525252",
"1	c #E8E8E8",
"2	c #CFCFCF",
"3	c #606060",
"4	c #5F5F5F",
"5	c #CBCBCB",
"6	c #565656",
"7	c #999999",
"8	c #9B9B9B",
"9	c #6D6D6D",
"0	c #A6A6A6",
"a	c #707070",
"b	c #A0A0A0",
"c	c #A2A2A2",
"d	c #A8A8A8",
"e	c #EEEEEE",
"f	c #E6E6E6",
"........................................",
"++++++++++++++++++++++++++++++++++++++++",
"@@@@@@@@@@@@@@@@@@@@@@@@@@@@@@@@@@@@@@@@",
"@@@@@@@@@@@@@@@@@@@@@@@@@@@@@@@@@@@@@@@@",
"@@@@@@@@@@@@@@@@@@@@@@@@@@@@@@@@@@@@@@@@",
"@@@@@@@@@@@@@@@@@@@@@@@@@@@@@@@@@@@@@@@@",
"@@@@@@@@@@@@@@@@@@@@@@@@@@@@@@@@@@@@@@@@",
"@@@@@@@@@@@@@@@@@@@@@@@@@@@@@@@@@@@@@@@@",
"@@@@@@@@@@@@@@@@@@@@@@@@@@@@@@@@@@@@@@@@",
"@@@@@@@@@@@@@@@@@@@@@@@@@@@@@@@@@@@@@@@@",
"@@@@@@@@@@@@@@@@@@@@@@@@@@@@@@@@@@@@@@@@",
"@@@@@@@@@@@@@@@@@@@@@@@@@@@@@@@@@@@@@@@@",
"@@@@@@@@@@@@@@@@@@@@@@@@@@@@@@@@@@@@@@@@",
"@@@@@@@@@@@@@@@@@@@@@@@@@@@@@@@@@@@@@@@@",
"@@@@@@@@@@@@@@@@@@@@@@@@@@@@@@@@@@@@@@@@",
"@@@@@@@@@@@@@@@@@@@@@@@@@@@@@@@@@@@@@@@@",
"@@@@@@@@@@@@@@@@@@@@@@@@@@@@@@@@@@@@@@@@",
"@@@@@@@@@@@@#$%@@@@@@@@@@&$#@@@@@@@@@@@@",
"@@@@@@@@@@@@*=-;@@@@@@@@;-=*@@@@@@@@@@@@",
"@@@@@@@@@@@@*>,-;@@@@@@;-,>*@@@@@@@@@@@@",
"@@@@@@@@@@@@'))!-;@@@@;-~)){@@@@@@@@@@@@",
"@@@@@@@@@@@@$)))!]^@@/-~)))(@@@@@@@@@@@@",
"@@@@@@@@@@@@_:)))~]^/-!)))<_@@@@@@@@@@@@",
"@@@@@@@@@@@@[}()))~||!)))<}[@@@@@@@@@@@@",
"@@@@@@@@@@@@@[}()))~!)))<}1@@@@@@@@@@@@@",
"@@@@@@@@@@@@@@[}())))))<}1@@@@@@@@@@@@@@",
"@@@@@@@@@@@@@@@[23))))451@@@@@@@@@@@@@@@",
"@@@@@@@@@@@@@@@/6!))))~]^@@@@@@@@@@@@@@@",
"@@@@@@@@@@@@@@/-!))))))~]^@@@@@@@@@@@@@@",
"@@@@@@@@@@@@@/-!)))<()))~]^@@@@@@@@@@@@@",
"@@@@@@@@@@@@/-!)))<}}()))~-;@@@@@@@@@@@@",
"@@@@@@@@@@@@3!)))7}1[}()))~3@@@@@@@@@@@@",
"@@@@@@@@@@@@>)))<}1@@[}8)))>@@@@@@@@@@@@",
"@@@@@@@@@@@@9))<}1@@@@[}8)){@@@@@@@@@@@@",
"@@@@@@@@@@@@0ab}1@@@@@@1}cad@@@@@@@@@@@@",
"@@@@@@@@@@@@}ee1@@@@@@@@1ee}@@@@@@@@@@@@",
"@@@@@@@@@@@@f}[@@@@@@@@@@[}f@@@@@@@@@@@@",
"@@@@@@@@@@@@@@@@@@@@@@@@@@@@@@@@@@@@@@@@",
"@@@@@@@@@@@@@@@@@@@@@@@@@@@@@@@@@@@@@@@@",
"@@@@@@@@@@@@@@@@@@@@@@@@@@@@@@@@@@@@@@@@",
"@@@@@@@@@@@@@@@@@@@@@@@@@@@@@@@@@@@@@@@@",
"@@@@@@@@@@@@@@@@@@@@@@@@@@@@@@@@@@@@@@@@",
"@@@@@@@@@@@@@@@@@@@@@@@@@@@@@@@@@@@@@@@@",
"@@@@@@@@@@@@@@@@@@@@@@@@@@@@@@@@@@@@@@@@",
"@@@@@@@@@@@@@@@@@@@@@@@@@@@@@@@@@@@@@@@@",
"@@@@@@@@@@@@@@@@@@@@@@@@@@@@@@@@@@@@@@@@",
"@@@@@@@@@@@@@@@@@@@@@@@@@@@@@@@@@@@@@@@@",
"@@@@@@@@@@@@@@@@@@@@@@@@@@@@@@@@@@@@@@@@"};
