/* XPM */
static char * maximize_prelight_xpm[] = {
"40 48 11 1",
" 	c None",
".	c #939393",
"+	c #FFFFFF",
"@	c #DEDEDE s active_color_2",
"#	c #434343",
"$	c #545454",
"%	c #595959",
"&	c #E6E6E6",
"*	c #E3E3E3",
"=	c #727171",
"-	c #909090",
"........................................",
"++++++++++++++++++++++++++++++++++++++++",
"@@@@@@@@@@@@@@@@@@@@@@@@@@@@@@@@@@@@@@@@",
"@@@@@@@@@@@@@@@@@@@@@@@@@@@@@@@@@@@@@@@@",
"@@@@@@@@@@@@@@@@@@@@@@@@@@@@@@@@@@@@@@@@",
"@@@@@@@@@@@@@@@@@@@@@@@@@@@@@@@@@@@@@@@@",
"@@@@@@@@@@@@@@@@@@@@@@@@@@@@@@@@@@@@@@@@",
"@@@@@@@@@@@@@@@@@@@@@@@@@@@@@@@@@@@@@@@@",
"@@@@@@@@@@@@@@@@@@@@@@@@@@@@@@@@@@@@@@@@",
"@@@@@@@@@@@@@@@@@@@@@@@@@@@@@@@@@@@@@@@@",
"@@@@@@@@@@@@@@@@@@@@@@@@@@@@@@@@@@@@@@@@",
"@@@@@@@@@@@@@@@@@@@@@@@@@@@@@@@@@@@@@@@@",
"@@@@@@@@@@@@@@@@@@@@@@@@@@@@@@@@@@@@@@@@",
"@@@@@@@@@@@@@@@@@@@@@@@@@@@@@@@@@@@@@@@@",
"@@@@@@@@@@@@@@@@@@@@@@@@@@@@@@@@@@@@@@@@",
"@@@@@@@@@@@@@@@@@@@@@@@@@@@@@@@@@@@@@@@@",
"@@@@@@@@@@@@@@@@@@@@@@@@@@@@@@@@@@@@@@@@",
"@@@@@@@@@@@@@@@@@@@@@@@@@@@@@@@@@@@@@@@@",
"@@@@@@@@@@@@@@@@@@####@@@@@@@@@@@@@@@@@@",
"@@@@@@@@@@@@@@@@@@$$$$@@@@@@@@@@@@@@@@@@",
"@@@@@@@@@@@@@@@@@@%%%%@@@@@@@@@@@@@@@@@@",
"@@@@@@@@@@@@@@@@@@%%%%@@@@@@@@@@@@@@@@@@",
"@@@@@@@@@@@@@@@@@@%%%%@@@@@@@@@@@@@@@@@@",
"@@@@@@@@@@@@@@@@@@%%%%@@@@@@@@@@@@@@@@@@",
"@@@@@@@@@@@@######%%%%######@@@@@@@@@@@@",
"@@@@@@@@@@@@$$$$$$%%%%$$$$$$@@@@@@@@@@@@",
"@@@@@@@@@@@@%%%%%%%%%%%%%%%%@@@@@@@@@@@@",
"@@@@@@@@@@@@%%%%%%%%%%%%%%%%@@@@@@@@@@@@",
"@@@@@@@@@@@@&&&&&&%%%%&&&&&&@@@@@@@@@@@@",
"@@@@@@@@@@@@******%%%%******@@@@@@@@@@@@",
"@@@@@@@@@@@@@@@@@@%%%%@@@@@@@@@@@@@@@@@@",
"@@@@@@@@@@@@@@@@@@%%%%@@@@@@@@@@@@@@@@@@",
"@@@@@@@@@@@@@@@@@@====@@@@@@@@@@@@@@@@@@",
"@@@@@@@@@@@@@@@@@@----@@@@@@@@@@@@@@@@@@",
"@@@@@@@@@@@@@@@@@@&&&&@@@@@@@@@@@@@@@@@@",
"@@@@@@@@@@@@@@@@@@****@@@@@@@@@@@@@@@@@@",
"@@@@@@@@@@@@@@@@@@@@@@@@@@@@@@@@@@@@@@@@",
"@@@@@@@@@@@@@@@@@@@@@@@@@@@@@@@@@@@@@@@@",
"@@@@@@@@@@@@@@@@@@@@@@@@@@@@@@@@@@@@@@@@",
"@@@@@@@@@@@@@@@@@@@@@@@@@@@@@@@@@@@@@@@@",
"@@@@@@@@@@@@@@@@@@@@@@@@@@@@@@@@@@@@@@@@",
"@@@@@@@@@@@@@@@@@@@@@@@@@@@@@@@@@@@@@@@@",
"@@@@@@@@@@@@@@@@@@@@@@@@@@@@@@@@@@@@@@@@",
"@@@@@@@@@@@@@@@@@@@@@@@@@@@@@@@@@@@@@@@@",
"@@@@@@@@@@@@@@@@@@@@@@@@@@@@@@@@@@@@@@@@",
"@@@@@@@@@@@@@@@@@@@@@@@@@@@@@@@@@@@@@@@@",
"@@@@@@@@@@@@@@@@@@@@@@@@@@@@@@@@@@@@@@@@",
"@@@@@@@@@@@@@@@@@@@@@@@@@@@@@@@@@@@@@@@@"};
