/* XPM */
static char * maximize_pressed_xpm[] = {
"40 48 70 1",
" 	c None",
".	c #939393",
"+	c #FFFFFF",
"@	c #DEDEDE s active_color_2",
"#	c #1C5896",
"$	c #2E69A6",
"%	c #3A77B7",
"&	c #3D7ABA",
"*	c #3E7ABA",
"=	c #3D7AB9",
"-	c #3D79B9",
";	c #437EBE",
">	c #427EBD",
",	c #417EBD",
"'	c #4683C2",
")	c #4682C1",
"!	c #4782C1",
"~	c #4B86C5",
"{	c #4B86C4",
"]	c #4A85C5",
"^	c #508BC9",
"/	c #508AC9",
"(	c #4F8AC9",
"_	c #4E8AC8",
":	c #5790CE",
"<	c #5690CE",
"[	c #558FCE",
"}	c #5590CD",
"|	c #548FCD",
"1	c #548ECC",
"2	c #538ECC",
"3	c #538DCB",
"4	c #528DCB",
"5	c #528CCB",
"6	c #518CCA",
"7	c #5A94D2",
"8	c #5B94D2",
"9	c #5993D1",
"0	c #5994D1",
"a	c #5A93D0",
"b	c #5993D0",
"c	c #5892D0",
"d	c #5892CF",
"e	c #5891CF",
"f	c #5792CE",
"g	c #5790CF",
"h	c #5691CF",
"i	c #E6E6E6",
"j	c #5E97D4",
"k	c #5D97D4",
"l	c #5D96D3",
"m	c #5C96D3",
"n	c #E3E3E3",
"o	c #629BD8",
"p	c #629BD7",
"q	c #619AD7",
"r	c #679FDC",
"s	c #669FDB",
"t	c #669FDA",
"u	c #6BA3E0",
"v	c #6BA3DF",
"w	c #6BA3DE",
"x	c #6AA3DE",
"y	c #70A8E3",
"z	c #70A7E3",
"A	c #6FA7E2",
"B	c #6FA6E2",
"C	c #74ACE7",
"D	c #74ABE6",
"E	c #74AAE5",
"........................................",
"++++++++++++++++++++++++++++++++++++++++",
"@@@@@@@@@@@@@@@@@@@@@@@@@@@@@@@@@@@@@@@@",
"@@@@@@@@@@@@@@@@@@@@@@@@@@@@@@@@@@@@@@@@",
"@@@@@@@@@@@@@@@@@@@@@@@@@@@@@@@@@@@@@@@@",
"@@@@@@@@@@@@@@@@@@@@@@@@@@@@@@@@@@@@@@@@",
"@@@@@@@@@@@@@@@@@@@@@@@@@@@@@@@@@@@@@@@@",
"@@@@@@@@@@@@@@@@@@@@@@@@@@@@@@@@@@@@@@@@",
"@@@@@@@@@@@@@@@@@@@@@@@@@@@@@@@@@@@@@@@@",
"@@@@@@@@@@@@@@@@@@@@@@@@@@@@@@@@@@@@@@@@",
"@@@@@@@@@@@@@@@@@@@@@@@@@@@@@@@@@@@@@@@@",
"@@@@@@@@@@@@@@@@@@@@@@@@@@@@@@@@@@@@@@@@",
"@@@@@@@@@@@@@@@@@@@@@@@@@@@@@@@@@@@@@@@@",
"@@@@@@@@@@@@@@@@@@@@@@@@@@@@@@@@@@@@@@@@",
"@@@@@@@@@@@@@@@@@@@@@@@@@@@@@@@@@@@@@@@@",
"@@@@@@@@@@@@@@@@@@@@@@@@@@@@@@@@@@@@@@@@",
"@@@@@@@@@@@@@@@@@@@@@@@@@@@@@@@@@@@@@@@@",
"@@@@@@@@@@@@@@@@@@@@@@@@@@@@@@@@@@@@@@@@",
"@@@@@@@@@@@@@@@@@@####@@@@@@@@@@@@@@@@@@",
"@@@@@@@@@@@@@@@@@@$$$$@@@@@@@@@@@@@@@@@@",
"@@@@@@@@@@@@@@@@@@%%%%@@@@@@@@@@@@@@@@@@",
"@@@@@@@@@@@@@@@@@@&*=-@@@@@@@@@@@@@@@@@@",
"@@@@@@@@@@@@@@@@@@;>,,@@@@@@@@@@@@@@@@@@",
"@@@@@@@@@@@@@@@@@@')!)@@@@@@@@@@@@@@@@@@",
"@@@@@@@@@@@@$$$$$$~~{]$$$$$$@@@@@@@@@@@@",
"@@@@@@@@@@@@%%%%%%^/(_%%%%%%@@@@@@@@@@@@",
"@@@@@@@@@@@@:<<[}||111233456@@@@@@@@@@@@",
"@@@@@@@@@@@@78890a9bccdefgh<@@@@@@@@@@@@",
"@@@@@@@@@@@@iiiiiijklmiiiiii@@@@@@@@@@@@",
"@@@@@@@@@@@@nnnnnnoopqnnnnnn@@@@@@@@@@@@",
"@@@@@@@@@@@@@@@@@@rsst@@@@@@@@@@@@@@@@@@",
"@@@@@@@@@@@@@@@@@@uvwx@@@@@@@@@@@@@@@@@@",
"@@@@@@@@@@@@@@@@@@yzAB@@@@@@@@@@@@@@@@@@",
"@@@@@@@@@@@@@@@@@@CDDE@@@@@@@@@@@@@@@@@@",
"@@@@@@@@@@@@@@@@@@iiii@@@@@@@@@@@@@@@@@@",
"@@@@@@@@@@@@@@@@@@nnnn@@@@@@@@@@@@@@@@@@",
"@@@@@@@@@@@@@@@@@@@@@@@@@@@@@@@@@@@@@@@@",
"@@@@@@@@@@@@@@@@@@@@@@@@@@@@@@@@@@@@@@@@",
"@@@@@@@@@@@@@@@@@@@@@@@@@@@@@@@@@@@@@@@@",
"@@@@@@@@@@@@@@@@@@@@@@@@@@@@@@@@@@@@@@@@",
"@@@@@@@@@@@@@@@@@@@@@@@@@@@@@@@@@@@@@@@@",
"@@@@@@@@@@@@@@@@@@@@@@@@@@@@@@@@@@@@@@@@",
"@@@@@@@@@@@@@@@@@@@@@@@@@@@@@@@@@@@@@@@@",
"@@@@@@@@@@@@@@@@@@@@@@@@@@@@@@@@@@@@@@@@",
"@@@@@@@@@@@@@@@@@@@@@@@@@@@@@@@@@@@@@@@@",
"@@@@@@@@@@@@@@@@@@@@@@@@@@@@@@@@@@@@@@@@",
"@@@@@@@@@@@@@@@@@@@@@@@@@@@@@@@@@@@@@@@@",
"@@@@@@@@@@@@@@@@@@@@@@@@@@@@@@@@@@@@@@@@"};
