/* XPM */
static char * top_left_inactive_xpm[] = {
"8 34 4 1",
" 	c None",
".	c #939393",
"+	c #FFFFFF",
"@	c #CECECE s active_color_2",
"  ......",
" .@@@@@@",
".@@@@@@@",
".@@@@@@@",
".@@@@@@@",
".@@@@@@@",
".@@@@@@@",
".@@@@@@@",
".@@@@@@@",
".@@@@@@@",
".@@@@@@@",
".@@@@@@@",
".@@@@@@@",
".@@@@@@@",
".@@@@@@@",
".@@@@@@@",
".@@@@@@@",
".@@@@@@@",
".@@@@@@@",
".@@@@@@@",
".@@@@@@@",
".@@@@@@@",
".@@@@@@@",
".@@@@@@@",
".@@@@@@@",
".@@@@@@@",
".@@@@@@@",
".@@@@@@@",
".@@@@@@@",
".@@@@@@@",
".@@@@@@@",
".@@@@@@@",
".@@@@@@@",
".@@@@@@@"};
