/* XPM */
static char * close_prelight_xpm[] = {
"12 18 45 1",
" 	c None",
".	c #939393",
"+	c #FFFFFF",
"@	c #DEDEDE s active_color_2",
"#	c #CECECE",
"$	c #7F7F7F",
"%	c #D1D1D1",
"&	c #CFCFCF",
"*	c #7E7E7E",
"=	c #646464",
"-	c #737373",
";	c #D3D3D3",
">	c #707070",
",	c #808080",
"'	c #E3E3E3",
")	c #848484",
"!	c #7C7C7C",
"~	c #797979",
"{	c #878787",
"]	c #E4E4E4",
"^	c #E1E1E1",
"/	c #E7E7E7",
"(	c #8F8F8F",
"_	c #7A7A7A",
":	c #7B7B7B",
"<	c #EAEAEA",
"[	c #D8D8D8",
"}	c #9A9A9A",
"|	c #868686",
"1	c #969696",
"2	c #D6D6D6",
"3	c #D4D4D4",
"4	c #949494",
"5	c #8D8D8D",
"6	c #A1A1A1",
"7	c #9F9F9F",
"8	c #8E8E8E",
"9	c #A4A4A4",
"0	c #989898",
"a	c #A7A7A7",
"b	c #EBEBEB",
"c	c #999999",
"d	c #A5A5A5",
"e	c #B3B3B3",
"f	c #F2F2F2",
"............",
"++++++++++++",
"@@@@@@@@@@@@",
"@@@@@@@@@@@@",
"@@@@@@@@@@@@",
"@@@@@@@@@@@@",
"@@#$%@@&*#@@",
"@@$=-;&>=,@@",
"@@')>!~>{]@@",
"@@^/(_:.<^@@",
"@@@[}||12@@@",
"@@345678.3@@",
"@@90ab<acd@@",
"@@/eb^^<e/@@",
"@@^f^@@^f^@@",
"@@@@@@@@@@@@",
"@@@@@@@@@@@@",
"@@@@@@@@@@@@"};
