/* XPM */
static char * close_active_xpm[] = {
"12 18 40 1",
" 	c None",
".	c #939393",
"+	c #FFFFFF",
"@	c #DEDEDE s active_color_2",
"#	c #D4D4D4",
"$	c #9E9E9E",
"%	c #D5D5D5",
"&	c #A0A0A0",
"*	c #989898",
"=	c #D6D6D6",
"-	c #969696",
";	c #E7E7E7",
">	c #ACACAC",
",	c #9D9D9D",
"'	c #9C9C9C",
")	c #ADADAD",
"!	c #E8E8E8",
"~	c #E1E1E1",
"{	c #ECECEC",
"]	c #B2B2B2",
"^	c #A2A2A2",
"/	c #A3A3A3",
"(	c #B5B5B5",
"_	c #EEEEEE",
":	c #DBDBDB",
"<	c #B8B8B8",
"[	c #B4B4B4",
"}	c #D9D9D9",
"|	c #D7D7D7",
"1	c #AEAEAE",
"2	c #B0B0B0",
"3	c #BEBEBE",
"4	c #B9B9B9",
"5	c #B7B7B7",
"6	c #C2C2C2",
"7	c #EDEDED",
"8	c #C0C0C0",
"9	c #EAEAEA",
"0	c #CACACA",
"a	c #F2F2F2",
"............",
"++++++++++++",
"@@@@@@@@@@@@",
"@@@@@@@@@@@@",
"@@@@@@@@@@@@",
"@@@@@@@@@@@@",
"@@#$%@@#$#@@",
"@@&.*=#-.&@@",
"@@;>,$',)!@@",
"@@~{]^/(_~@@",
"@@@:<>>[}@@@",
"@@|12332)|@@",
"@@456_7854@@",
"@@90_~~_09@@",
"@@~a~@@~a~@@",
"@@@@@@@@@@@@",
"@@@@@@@@@@@@",
"@@@@@@@@@@@@"};
