/* XPM */
static char * maximize_inactive_xpm[] = {
"12 18 8 1",
" 	c None",
".	c #939393",
"+	c #FFFFFF",
"@	c #DEDEDE s active_color_2",
"#	c #BABABA",
"$	c #CACACA",
"%	c #EAEAEA",
"&	c #D4D4D4",
"............",
"++++++++++++",
"@@@@@@@@@@@@",
"@@@@@@@@@@@@",
"@@@@@@@@@@@@",
"@@@@@@@@@@@@",
"@@@@@##@@@@@",
"@@@@@$$@@@@@",
"@@@@@$$@@@@@",
"@@###$$###@@",
"@@$$$$$$$$@@",
"@@%%%$$%%%@@",
"@@@@@$$@@@@@",
"@@@@@&&@@@@@",
"@@@@@%%@@@@@",
"@@@@@@@@@@@@",
"@@@@@@@@@@@@",
"@@@@@@@@@@@@"};
