/* XPM */
static char * maximize_pressed_xpm[] = {
"12 18 4 1",
" 	c #939393",
".	c #FFFFFF",
"+	c #DEDEDE s active_color_2",
"@	c #5189B5 s active_color_1",
"            ",
"............",
"++++++++++++",
"++++++++++++",
"++++++++++++",
"++++++++++++",
"+++++@@+++++",
"+++++@@+++++",
"+++++@@+++++",
"++@@@@@@@@++",
"++@@@@@@@@++",
"+++++@@+++++",
"+++++@@+++++",
"+++++@@+++++",
"++++++++++++",
"++++++++++++",
"++++++++++++",
"++++++++++++",
