/* XPM */
static char * menu_inactive_xpm[] = {
"12 18 21 1",
" 	c None",
".	c #939393",
"+	c #FFFFFF",
"@	c #DEDEDE s active_color_2",
"#	c #C2C2C2",
"$	c #B4B4B4",
"%	c #C4C4C4",
"&	c #E7E7E7",
"*	c #CCCCCC",
"=	c #CFCFCF",
"-	c #DFDFDF",
";	c #C9C9C9",
">	c #C7C7C7",
",	c #CDCDCD",
"'	c #E9E9E9",
")	c #E0E0E0",
"!	c #E3E3E3",
"~	c #CBCBCB",
"{	c #DCDCDC",
"]	c #E5E5E5",
"^	c #E1E1E1",
"............",
"++++++++++++",
"@@@@@@@@@@@@",
"@@@@@@@@@@@@",
"@@@@@@@@@@@@",
"@@@@@@@@@@@@",
"@@@@@@@@@@@@",
"@@@@@@@@@@@@",
"@@#$$$$$$%@@",
"@@&*%%%%=&@@",
"@@-&;>>,'@@@",
"@@@)!~,&-@@@",
"@@@@!{]^@@@@",
"@@@@@&!@@@@@",
"@@@@@@@@@@@@",
"@@@@@@@@@@@@",
"@@@@@@@@@@@@",
"@@@@@@@@@@@@"};
