/* XPM */
static char * stick_inactive_xpm[] = {
"12 18 24 1",
" 	c None",
".	c #8D8D8D",
"+	c #FFFFFF",
"@	c #DEDEDE s active_color_2",
"#	c #BCBCBC",
"$	c #BCBDBD",
"%	c #BCBDBC",
"&	c #BDBCBC",
"*	c #BFBFC0",
"=	c #C0C0BF",
"-	c #ECECEC",
";	c #BFC0C0",
">	c #BFBFBF",
",	c #C2C2C2",
"'	c #C3C2C2",
")	c #C5C5C5",
"!	c #C5C5C6",
"~	c #C9C9C8",
"{	c #C8C9C8",
"]	c #C8C8C8",
"^	c #C9C8C8",
"/	c #CBCCCB",
"(	c #CBCBCB",
"_	c #CECECE",
"............",
"++++++++++++",
"@@@@@@@@@@@@",
"@@@@@@@@@@@@",
"@@@@@@@@@@@@",
"@@@@@@@@@@@@",
"@@@@####@@@@",
"@@@$%#%&#@@@",
"@@*=----;>@@",
"@@,,@@@@''@@",
"@@)!@@@@!!@@",
"@@~{@@@@]^@@",
"@@-//(((/-@@",
"@@@-____-@@@",
"@@@@----@@@@",
"@@@@@@@@@@@@",
"@@@@@@@@@@@@",
"@@@@@@@@@@@@"};
