#define desk_toggled_width 10
#define desk_toggled_height 10
static unsigned char desk_toggled_bits[] = {
   0xcf, 0x03, 0xcf, 0x03, 0xff, 0x03, 0x87, 0x03, 0x84, 0x00, 0x84, 0x00,
   0x87, 0x03, 0xff, 0x03, 0xcf, 0x03, 0xcf, 0x03 };
