/* XPM */
static char * top_left_active_xpm[] = {
"8 34 4 1",
" 	c None",
".	c #6C6C6C",
"+	c #000000",
"@	c #3B3E3F",
"  ......",
" .++++++",
".+@@@@@@",
".+@@@@@@",
".+@@@@@@",
".+@@@@@@",
".+@@@@@@",
".+@@@@@@",
".+@@@@@@",
".+@@@@@@",
".+@@@@@@",
".+@@@@@@",
".+@@@@@@",
".+@@@@@@",
".+@@@@@@",
".+@@@@@@",
".+@@@@@@",
".+@@@@@@",
".+@@@@@@",
".+@@@@@@",
".+@@@@@@",
".+@@@@@@",
".+@@@@@@",
".+@@@@@@",
".+@@@@@@",
".+@@@@@@",
".+@@@@@@",
".+@@@@@@",
".+@@@@@@",
".+@@@@@@",
".+@@@@@@",
".+@@@@@@",
".+@@@@@@",
".+@@@@@@"};
