/* XPM */
static char * shade_toggled_prelight_xpm[] = {
"20 24 21 1",
" 	c None",
".	c #8D8D8D",
"+	c #FFFFFF",
"@	c #DEDEDE s active_color_2",
"#	c #646464",
"$	c #5F5F5F",
"%	c #343434",
"&	c #EAEAEA",
"*	c #454545",
"=	c #696969",
"-	c #ECECEC",
";	c #E4E4E4",
">	c #575757",
",	c #4E4E4E",
"'	c #616161",
")	c #D4D4D4",
"!	c #5A5A5A",
"~	c #E3E3E3",
"{	c #DFDFDF",
"]	c #BDBDBD",
"^	c #D8D8D8",
"....................",
"++++++++++++++++++++",
"@@@@@@@@@@@@@@@@@@@@",
"@@@@@@@@@@@@@@@@@@@@",
"@@@@@@@@@@@@@@@@@@@@",
"@@@@@@@@@@@@@@@@@@@@",
"@@@@@@@@@@@@@@@@@@@@",
"@@@@@@@@@@@@@@@@@@@@",
"@@@@@@@@@@@@@@@@@@@@",
"@@@@@@@@@##@@@@@@@@@",
"@@@@@@@@@##@@@@@@@@@",
"@@@@@@@@@##@@@@@@@@@",
"@@@@@@@@@##@@@@@@@@@",
"@@@@@@$%####%#@@@@@@",
"@@@@@@&$*##*=-@@@@@@",
"@@@@@@@;>,,'&@@@@@@@",
"@@@@@@@@)!'~{@@@@@@@",
"@@@@@@@@@]^@@@@@@@@@",
"@@@@@@@@@@@@@@@@@@@@",
"@@@@@@@@@@@@@@@@@@@@",
"@@@@@@@@@@@@@@@@@@@@",
"@@@@@@@@@@@@@@@@@@@@",
"@@@@@@@@@@@@@@@@@@@@",
"@@@@@@@@@@@@@@@@@@@@"};
