/* XPM */
static char * close_inactive_xpm[] = {
"12 18 9 1",
" 	c None",
".	c #939393",
"+	c #FFFFFF",
"@	c #DEDEDE s active_color_2",
"#	c #BFBFBF",
"$	c #CFCFCF",
"%	c #ECECEC",
"&	c #D5D5D5",
"*	c #F2F2F2",
"............",
"++++++++++++",
"@@@@@@@@@@@@",
"@@@@@@@@@@@@",
"@@@@@@@@@@@@",
"@@@@@@@@@@@@",
"@@@@@@@@@@@@",
"@@##@@@@##@@",
"@@$$#@@#$$@@",
"@@%$$##$$%@@",
"@@@%$$$$%@@@",
"@@@@&$$&@@@@",
"@@@#$$$$#@@@",
"@@#$$%%$$#@@",
"@@$$%@@*$$@@",
"@@%%@@@@%%@@",
"@@@@@@@@@@@@",
"@@@@@@@@@@@@",
"@@@@@@@@@@@@"};
