/* XPM */
static char * close_inactive_xpm[] = {
"12 18 38 1",
" 	c None",
".	c #939393",
"+	c #FFFFFF",
"@	c #DEDEDE s active_color_2",
"#	c #D9D9D9",
"$	c #BFBFBF",
"%	c #DADADA",
"&	c #BEBEBE",
"*	c #C0C0C0",
"=	c #BCBCBC",
"-	c #BBBBBB",
";	c #DBDBDB",
">	c #BABABA",
",	c #E6E6E6",
"'	c #C9C9C9",
")	c #C2C2C2",
"!	c #BDBDBD",
"~	c #CACACA",
"{	c #E7E7E7",
"]	c #E0E0E0",
"^	c #E8E8E8",
"/	c #CDCDCD",
"(	c #C4C4C4",
"_	c #C5C5C5",
":	c #CECECE",
"<	c #E9E9E9",
"[	c #DDDDDD",
"}	c #DCDCDC",
"|	c #C7C7C7",
"1	c #CBCBCB",
"2	c #D3D3D3",
"3	c #D2D2D2",
"4	c #CCCCCC",
"5	c #C6C6C6",
"6	c #CFCFCF",
"7	c #D5D5D5",
"8	c #EAEAEA",
"9	c #EBEBEB",
"............",
"++++++++++++",
"@@@@@@@@@@@@",
"@@@@@@@@@@@@",
"@@@@@@@@@@@@",
"@@@@@@@@@@@@",
"@@#$%@@#&#@@",
"@@*=-;#>=*@@",
"@@,')$!)~{@@",
"@@]^/(_:<]@@",
"@@@[:~~/}@@@",
"@@;|12345;@@",
"@@467<<764@@",
"@@{#8]]<#{@@",
"@@]9]@@]9]@@",
"@@@@@@@@@@@@",
"@@@@@@@@@@@@",
"@@@@@@@@@@@@"};
