/* XPM */
static char * menu_pressed_xpm[] = {
"12 18 25 1",
" 	c None",
".	c #939393",
"+	c #FFFFFF",
"@	c #DEDEDE s active_color_2",
"#	c #84A8C3",
"$	c #528AB5",
"%	c #88AAC5",
"&	c #EBECED",
"*	c #7BA5C8",
"=	c #5C92BC",
"-	c #86AECC",
";	c #E1E9EE",
">	c #71A2C6",
",	c #669BC3",
"'	c #7CA9CB",
")	c #E8ECEF",
"!	c #CEDEEA",
"~	c #71A4CB",
"{	c #78AACD",
"]	c #E0E8EE",
"^	c #E6E6E6",
"/	c #B3CEE3",
"(	c #D1E0EB",
"_	c #E2E2E2",
":	c #EDEDED",
"............",
"++++++++++++",
"@@@@@@@@@@@@",
"@@@@@@@@@@@@",
"@@@@@@@@@@@@",
"@@@@@@@@@@@@",
"@@@@@@@@@@@@",
"@@@@@@@@@@@@",
"@@#$$$$$$%@@",
"@@&*====-&@@",
"@@@;>,,')@@@",
"@@@@!~{]@@@@",
"@@@@^/(_@@@@",
"@@@@@:^@@@@@",
"@@@@@@@@@@@@",
"@@@@@@@@@@@@",
"@@@@@@@@@@@@",
"@@@@@@@@@@@@"};
