/* XPM */
static char * menu_active_xpm[] = {
"12 18 25 1",
" 	c None",
".	c #939393",
"+	c #FFFFFF",
"@	c #DEDEDE s active_color_2",
"#	c #A7A7A7",
"$	c #888888",
"%	c #AAAAAA",
"&	c #ECECEC",
"*	c #B0B0B0",
"=	c #9F9F9F",
"-	c #B6B6B6",
";	c #DFDFDF",
">	c #EAEAEA",
",	c #ABABAB",
"'	c #A5A5A5",
")	c #B2B2B2",
"!	c #E1E1E1",
"~	c #E0E0E0",
"{	c #ACACAC",
"]	c #B1B1B1",
"^	c #E9E9E9",
"/	c #E6E6E6",
"(	c #D3D3D3",
"_	c #E2E2E2",
":	c #EDEDED",
"............",
"++++++++++++",
"@@@@@@@@@@@@",
"@@@@@@@@@@@@",
"@@@@@@@@@@@@",
"@@@@@@@@@@@@",
"@@@@@@@@@@@@",
"@@@@@@@@@@@@",
"@@#$$$$$$%@@",
"@@&*====-&@@",
"@@;>,'')&@@@",
"@@@!~{]^~@@@",
"@@@@/(__@@@@",
"@@@@@:/@@@@@",
"@@@@@@@@@@@@",
"@@@@@@@@@@@@",
"@@@@@@@@@@@@",
"@@@@@@@@@@@@"};
