/* XPM */
static char * shade_toggled_active_xpm[] = {
"12 18 18 1",
" 	c None",
".	c #8D8D8D",
"+	c #FFFFFF",
"@	c #DEDEDE s active_color_2",
"#	c #A8A8A8",
"$	c #898989",
"%	c #B1B1B1",
"&	c #ABABAB",
"*	c #ECECEC",
"=	c #B0B0B0",
"-	c #9E9E9E",
";	c #B6B6B6",
">	c #E9E9E9",
",	c #A4A4A4",
"'	c #EBEBEB",
")	c #E1E1E1",
"!	c #E0E0E0",
"~	c #E5E5E5",
"............",
"++++++++++++",
"@@@@@@@@@@@@",
"@@@@@@@@@@@@",
"@@@@@@@@@@@@",
"@@@@@@@@@@@@",
"@@@@@@@@@@@@",
"@@#$%@@%$&@@",
"@@*=-%%-;*@@",
"@@@>&,,%'@@@",
"@@@)!&=>@@@@",
"@@@@~~))@@@@",
"@@@@@*~@@@@@",
"@@@@@@@@@@@@",
"@@@@@@@@@@@@",
"@@@@@@@@@@@@",
"@@@@@@@@@@@@",
"@@@@@@@@@@@@"};
