/* XPM */
static char * shade_toggled_inactive_xpm[] = {
"12 18 22 1",
" 	c None",
".	c #8D8D8D",
"+	c #FFFFFF",
"@	c #DEDEDE s active_color_2",
"#	c #C4C4C4",
"$	c #B5B5B5",
"%	c #C5C5C5",
"&	c #E7E7E7",
"*	c #CCCCCC",
"=	c #CFCFCF",
"-	c #E6E6E6",
";	c #C9C9C9",
">	c #C6C6C6",
",	c #CDCDCD",
"'	c #E8E8E8",
")	c #E0E0E0",
"!	c #E3E3E3",
"~	c #CACACA",
"{	c #DFDFDF",
"]	c #E2E2E2",
"^	c #DBDBDB",
"/	c #E4E4E4",
"............",
"++++++++++++",
"@@@@@@@@@@@@",
"@@@@@@@@@@@@",
"@@@@@@@@@@@@",
"@@@@@@@@@@@@",
"@@@@@@@@@@@@",
"@@#$%@@%$%@@",
"@@&*#==#=&@@",
"@@@-;>>,'@@@",
"@@@)!~*-{@@@",
"@@@@]^/{@@@@",
"@@@@@-]@@@@@",
"@@@@@@@@@@@@",
"@@@@@@@@@@@@",
"@@@@@@@@@@@@",
"@@@@@@@@@@@@",
"@@@@@@@@@@@@"};
