/* XPM */
static char * stick_pressed_xpm[] = {
"12 18 25 1",
" 	c None",
".	c #8D8D8D",
"+	c #FFFFFF",
"@	c #DEDEDE s active_color_2",
"#	c #5189B5",
"$	c #5189B6",
"%	c #5289B5",
"&	c #528AB6",
"*	c #518AB5",
"=	c #5B90BB",
"-	c #5A91BC",
";	c #ECECEC",
">	c #5A91BB",
",	c #6398C1",
"'	c #6298C1",
")	c #6B9FC8",
"!	c #6B9FC7",
"~	c #74A6CE",
"{	c #73A6CD",
"]	c #74A7CE",
"^	c #7BADD3",
"/	c #7CADD3",
"(	c #7CAED3",
"_	c #7CAED4",
":	c #84B4D9",
"............",
"++++++++++++",
"@@@@@@@@@@@@",
"@@@@@@@@@@@@",
"@@@@@@@@@@@@",
"@@@@@@@@@@@@",
"@@@@####@@@@",
"@@@$%&*$&@@@",
"@@=-;;;;>>@@",
"@@,'@@@@,,@@",
"@@)!@@@@!!@@",
"@@~{@@@@{]@@",
"@@;^//(_/;@@",
"@@@;::::;@@@",
"@@@@;;;;@@@@",
"@@@@@@@@@@@@",
"@@@@@@@@@@@@",
"@@@@@@@@@@@@"};
