/* XPM */
static char * stick_prelight_xpm[] = {
"12 18 10 1",
" 	c None",
".	c #8D8D8D",
"+	c #FFFFFF",
"@	c #DEDEDE s active_color_2",
"#	c #707070",
"$	c #ECECEC",
"%	c #767676",
"&	c #7A7A7A",
"*	c #7E7E7E",
"=	c #868686",
"............",
"++++++++++++",
"@@@@@@@@@@@@",
"@@@@@@@@@@@@",
"@@@@@@@@@@@@",
"@@@@@@@@@@@@",
"@@@@####@@@@",
"@@@######@@@",
"@@##$$$$##@@",
"@@%%@@@@%%@@",
"@@&&@@@@&&@@",
"@@**@@@@**@@",
"@@$======$@@",
"@@@$====$@@@",
"@@@@$$$$@@@@",
"@@@@@@@@@@@@",
"@@@@@@@@@@@@",
"@@@@@@@@@@@@"};
