/* XPM */
static char * close_inactive_xpm[] = {
"20 24 12 1",
" 	c None",
".	c #939393",
"+	c #FFFFFF",
"@	c #CECECE s active_color_2",
"#	c #C9C9C9",
"$	c #C5C5C5",
"%	c #D0D0D0",
"&	c #DDDDDD",
"*	c #E3E3E3",
"=	c #E5E5E5",
"-	c #B0B0B0",
";	c #D5D5D5",
"....................",
"++++++++++++++++++++",
"@@@@@@@@@@@@@@@@@@@@",
"@@@@@@@@@@@@@@@@@@@@",
"@@@@@@@@@@@@@@@@@@@@",
"@@@@@@@#$$$$#@@@@@@@",
"@@@@@#$%&**&%$#@@@@@",
"@@@@#$&======&$#@@@@",
"@@@@$&========&$@@@@",
"@@@#%==-;==;-==%#@@@",
"@@@$&==;-;;-;==&$@@@",
"@@@$*===;--;===*$@@@",
"@@@$*===;--;===*$@@@",
"@@@$&==;-;;-;==&$@@@",
"@@@#%==-;==;-==%#@@@",
"@@@@$&========&$@@@@",
"@@@@#$&======&$#@@@@",
"@@@@@#$%&**&%$#@@@@@",
"@@@@@@@#$$$$#@@@@@@@",
"@@@@@@@@@@@@@@@@@@@@",
"@@@@@@@@@@@@@@@@@@@@",
"@@@@@@@@@@@@@@@@@@@@",
"@@@@@@@@@@@@@@@@@@@@",
"@@@@@@@@@@@@@@@@@@@@"};
