/* XPM */
static char * close_active_xpm[] = {
"20 24 28 1",
" 	c None",
".	c #939393",
"+	c #FFFFFF",
"@	c #CECECE s active_color_2",
"#	c #DCA2A4",
"$	c #E68386",
"%	c #EC6E71",
"&	c #ED6C70",
"*	c #ED6B6F",
"=	c #EC7074",
"-	c #EE6B6F",
";	c #FFFCFC",
">	c #F8C4C6",
",	c #EE6B70",
"'	c #F8C3C4",
")	c #FFFEFE",
"!	c #F6B5B7",
"~	c #F8C7C8",
"{	c #F6BABD",
"]	c #F6B8BA",
"^	c #F8BCBE",
"/	c #EE6C71",
"(	c #F9C8CA",
"_	c #F9CDCF",
":	c #F8C4C7",
"<	c #F8C6C7",
"[	c #FDF2F2",
"}	c #F6B1B4",
"....................",
"++++++++++++++++++++",
"@@@@@@@@@@@@@@@@@@@@",
"@@@@@@@@@@@@@@@@@@@@",
"@@@@@@@@@@@@@@@@@@@@",
"@@@@@@@#$$$$#@@@@@@@",
"@@@@@#$%&**&%$#@@@@@",
"@@@@#=&------&=#@@@@",
"@@@@$&--------&$@@@@",
"@@@#%--;>,,')--%#@@@",
"@@@$&--!+~~+{--&$@@@",
"@@@$*---]++^---*$@@@",
"@@@$*--/(++_/--*$@@@",
"@@@$&--:+!!+<--&$@@@",
"@@@#%--[}--}[--%#@@@",
"@@@@$&--------&$@@@@",
"@@@@#=&------&=#@@@@",
"@@@@@#$%&**&%$#@@@@@",
"@@@@@@@#$$$$#@@@@@@@",
"@@@@@@@@@@@@@@@@@@@@",
"@@@@@@@@@@@@@@@@@@@@",
"@@@@@@@@@@@@@@@@@@@@",
"@@@@@@@@@@@@@@@@@@@@",
"@@@@@@@@@@@@@@@@@@@@"};
