/* XPM */
static char * close_active_xpm[] = {
"20 24 39 1",
" 	c #939393",
".	c #FFFFFF",
"+	c #DEDEDE s active_color_2",
"@	c #D4D4D4",
"#	c #9E9E9E",
"$	c #D5D5D5",
"%	c #A0A0A0",
"&	c #989898",
"*	c #D6D6D6",
"=	c #969696",
"-	c #E7E7E7",
";	c #ACACAC",
">	c #9D9D9D",
",	c #9C9C9C",
"'	c #ADADAD",
")	c #E8E8E8",
"!	c #E1E1E1",
"~	c #ECECEC",
"{	c #B2B2B2",
"]	c #A2A2A2",
"^	c #A3A3A3",
"/	c #B5B5B5",
"(	c #EEEEEE",
"_	c #DBDBDB",
":	c #B8B8B8",
"<	c #B4B4B4",
"[	c #D9D9D9",
"}	c #D7D7D7",
"|	c #AEAEAE",
"1	c #B0B0B0",
"2	c #BEBEBE",
"3	c #B9B9B9",
"4	c #B7B7B7",
"5	c #C2C2C2",
"6	c #EDEDED",
"7	c #C0C0C0",
"8	c #EAEAEA",
"9	c #CACACA",
"0	c #F2F2F2",
"                    ",
"....................",
"++++++++++++++++++++",
"++++++++++++++++++++",
"++++++++++++++++++++",
"++++++++++++++++++++",
"++++++++++++++++++++",
"++++++++++++++++++++",
"++++++++++++++++++++",
"++++++@#$++@#@++++++",
"++++++% &*@= %++++++",
"++++++-;>#,>')++++++",
"++++++!~{]^/(!++++++",
"+++++++_:;;<[+++++++",
"++++++}|1221'}++++++",
"++++++345(6743++++++",
"++++++89(!!(98++++++",
"++++++!0!++!0!++++++",
"++++++++++++++++++++",
"++++++++++++++++++++",
"++++++++++++++++++++",
"++++++++++++++++++++",
"++++++++++++++++++++",
"++++++++++++++++++++"};
