/* XPM */
static char * close_prelight_xpm[] = {
"20 24 29 1",
" 	c None",
".	c #939393",
"+	c #FFFFFF",
"@	c #CECECE s active_color_2",
"#	c #C17F81",
"$	c #AC4C4F",
"%	c #BB484B",
"&	c #DA5D60",
"*	c #EB696D",
"=	c #9C3436",
"-	c #DA5C60",
";	c #EE6B6F",
">	c #FFFCFC",
",	c #F8C4C6",
"'	c #EE6B70",
")	c #F8C3C4",
"!	c #FFFEFE",
"~	c #F6B5B7",
"{	c #F8C7C8",
"]	c #F6BABD",
"^	c #F6B8BA",
"/	c #F8BCBE",
"(	c #EE6C71",
"_	c #F9C8CA",
":	c #F9CDCF",
"<	c #F8C4C7",
"[	c #F8C6C7",
"}	c #FDF2F2",
"|	c #F6B1B4",
"....................",
"++++++++++++++++++++",
"@@@@@@@@@@@@@@@@@@@@",
"@@@@@@@@@@@@@@@@@@@@",
"@@@@@@@@@@@@@@@@@@@@",
"@@@@@@@#$$$$#@@@@@@@",
"@@@@@#$%&**&%$#@@@@@",
"@@@@#=-;;;;;;-=#@@@@",
"@@@@$-;;;;;;;;-$@@@@",
"@@@#%;;>,'')!;;%#@@@",
"@@@$&;;~+{{+];;&$@@@",
"@@@$*;;;^++/;;;*$@@@",
"@@@$*;;(_++:(;;*$@@@",
"@@@$&;;<+~~+[;;&$@@@",
"@@@#%;;}|;;|};;%#@@@",
"@@@@$-;;;;;;;;-$@@@@",
"@@@@#=-;;;;;;-=#@@@@",
"@@@@@#$%&**&%$#@@@@@",
"@@@@@@@#$$$$#@@@@@@@",
"@@@@@@@@@@@@@@@@@@@@",
"@@@@@@@@@@@@@@@@@@@@",
"@@@@@@@@@@@@@@@@@@@@",
"@@@@@@@@@@@@@@@@@@@@",
"@@@@@@@@@@@@@@@@@@@@"};
