/* XPM */
static char * close_prelight_xpm[] = {
"20 24 44 1",
" 	c #939393",
".	c #FFFFFF",
"+	c #DEDEDE s active_color_2",
"@	c #CECECE",
"#	c #7F7F7F",
"$	c #D1D1D1",
"%	c #CFCFCF",
"&	c #7E7E7E",
"*	c #646464",
"=	c #737373",
"-	c #D3D3D3",
";	c #707070",
">	c #808080",
",	c #E3E3E3",
"'	c #848484",
")	c #7C7C7C",
"!	c #797979",
"~	c #878787",
"{	c #E4E4E4",
"]	c #E1E1E1",
"^	c #E7E7E7",
"/	c #8F8F8F",
"(	c #7A7A7A",
"_	c #7B7B7B",
":	c #EAEAEA",
"<	c #D8D8D8",
"[	c #9A9A9A",
"}	c #868686",
"|	c #969696",
"1	c #D6D6D6",
"2	c #D4D4D4",
"3	c #949494",
"4	c #8D8D8D",
"5	c #A1A1A1",
"6	c #9F9F9F",
"7	c #8E8E8E",
"8	c #A4A4A4",
"9	c #989898",
"0	c #A7A7A7",
"a	c #EBEBEB",
"b	c #999999",
"c	c #A5A5A5",
"d	c #B3B3B3",
"e	c #F2F2F2",
"                    ",
"....................",
"++++++++++++++++++++",
"++++++++++++++++++++",
"++++++++++++++++++++",
"++++++++++++++++++++",
"++++++++++++++++++++",
"++++++++++++++++++++",
"++++++++++++++++++++",
"++++++@#$++%&@++++++",
"++++++#*=-%;*>++++++",
"++++++,';)!;~{++++++",
"++++++]^/(_ :]++++++",
"+++++++<[}}|1+++++++",
"++++++234567 2++++++",
"++++++890a:0bc++++++",
"++++++^da]]:d^++++++",
"++++++]e]++]e]++++++",
"++++++++++++++++++++",
"++++++++++++++++++++",
"++++++++++++++++++++",
"++++++++++++++++++++",
"++++++++++++++++++++",
"++++++++++++++++++++"};
