/* XPM */
static char * close_pressed_xpm[] = {
"20 24 25 1",
" 	c None",
".	c #939393",
"+	c #FFFFFF",
"@	c #CECECE s active_color_2",
"#	c #CF8183",
"$	c #D14A4E",
"%	c #D12529",
"&	c #D12226",
"*	c #D12125",
"=	c #D1292D",
"-	c #D22024",
";	c #FFFCFC",
">	c #E39B9E",
",	c #E39B9C",
"'	c #FFFEFE",
")	c #E29193",
"!	c #E39D9F",
"~	c #E29498",
"{	c #E29395",
"]	c #E39698",
"^	c #E49EA1",
"/	c #E4A2A4",
"(	c #E39B9F",
"_	c #FDF2F2",
":	c #E28E91",
"....................",
"++++++++++++++++++++",
"@@@@@@@@@@@@@@@@@@@@",
"@@@@@@@@@@@@@@@@@@@@",
"@@@@@@@@@@@@@@@@@@@@",
"@@@@@@@#$$$$#@@@@@@@",
"@@@@@#$%&**&%$#@@@@@",
"@@@@#=&------&=#@@@@",
"@@@@$&--------&$@@@@",
"@@@#%--;>--,'--%#@@@",
"@@@$&--)+!!+~--&$@@@",
"@@@$*---{++]---*$@@@",
"@@@$*---^++/---*$@@@",
"@@@$&--(+))+!--&$@@@",
"@@@#%--_:--:_--%#@@@",
"@@@@$&--------&$@@@@",
"@@@@#=&------&=#@@@@",
"@@@@@#$%&**&%$#@@@@@",
"@@@@@@@#$$$$#@@@@@@@",
"@@@@@@@@@@@@@@@@@@@@",
"@@@@@@@@@@@@@@@@@@@@",
"@@@@@@@@@@@@@@@@@@@@",
"@@@@@@@@@@@@@@@@@@@@",
"@@@@@@@@@@@@@@@@@@@@"};
