/* XPM */
static char * close_inactive_xpm[] = {
"20 24 37 1",
" 	c #939393",
".	c #FFFFFF",
"+	c #DEDEDE s active_color_2",
"@	c #D9D9D9",
"#	c #BFBFBF",
"$	c #DADADA",
"%	c #BEBEBE",
"&	c #C0C0C0",
"*	c #BCBCBC",
"=	c #BBBBBB",
"-	c #DBDBDB",
";	c #BABABA",
">	c #E6E6E6",
",	c #C9C9C9",
"'	c #C2C2C2",
")	c #BDBDBD",
"!	c #CACACA",
"~	c #E7E7E7",
"{	c #E0E0E0",
"]	c #E8E8E8",
"^	c #CDCDCD",
"/	c #C4C4C4",
"(	c #C5C5C5",
"_	c #CECECE",
":	c #E9E9E9",
"<	c #DDDDDD",
"[	c #DCDCDC",
"}	c #C7C7C7",
"|	c #CBCBCB",
"1	c #D3D3D3",
"2	c #D2D2D2",
"3	c #CCCCCC",
"4	c #C6C6C6",
"5	c #CFCFCF",
"6	c #D5D5D5",
"7	c #EAEAEA",
"8	c #EBEBEB",
"                    ",
"....................",
"++++++++++++++++++++",
"++++++++++++++++++++",
"++++++++++++++++++++",
"++++++++++++++++++++",
"++++++++++++++++++++",
"++++++++++++++++++++",
"++++++++++++++++++++",
"++++++@#$++@%@++++++",
"++++++&*=-@;*&++++++",
"++++++>,'#)'!~++++++",
"++++++{]^/(_:{++++++",
"+++++++<_!!^[+++++++",
"++++++-}|1234-++++++",
"++++++356::653++++++",
"++++++~@7{{:@~++++++",
"++++++{8{++{8{++++++",
"++++++++++++++++++++",
"++++++++++++++++++++",
"++++++++++++++++++++",
"++++++++++++++++++++",
"++++++++++++++++++++",
"++++++++++++++++++++"};
