/* XPM */
static char * close_pressed_xpm[] = {
"20 24 51 1",
" 	c #939393",
".	c #FFFFFF",
"+	c #DEDEDE s active_color_2",
"@	c #CDD4D9",
"#	c #77A0BF",
"$	c #D0D5D9",
"%	c #CED5DA",
"&	c #769FBE",
"*	c #769FC1",
"=	c #5189B5",
"-	c #6897BC",
";	c #D2D7DB",
">	c #CFD5DA",
",	c #6696BA",
"'	c #76A0C0",
")	c #E1E6EC",
"!	c #71A0C4",
"~	c #5C92BC",
"{	c #73A0C2",
"]	c #6F9DC0",
"^	c #75A3C6",
"/	c #E2E7EC",
"(	c #E1E1E1",
"_	c #E5EBEF",
":	c #7CA9CB",
"<	c #669BC3",
"[	c #82ADCE",
"}	c #E8EDF0",
"|	c #D7DBDF",
"1	c #88B2D3",
"2	c #70A3CB",
"3	c #84AFD1",
"4	c #D4DADE",
"5	c #D3D9DD",
"6	c #8AB4D5",
"7	c #7AACD2",
"8	c #8EB8D8",
"9	c #8CB7D8",
"0	c #89B3D4",
"a	c #9CC0DC",
"b	c #84B4D9",
"c	c #94BDDD",
"d	c #E9EEF1",
"e	c #E7ECF1",
"f	c #93BDDD",
"g	c #E4EAEE",
"h	c #A4C7E4",
"i	c #E7EDF2",
"j	c #E8EDF3",
"k	c #A3C8E4",
"l	c #F2F2F2",
"                    ",
"....................",
"++++++++++++++++++++",
"++++++++++++++++++++",
"++++++++++++++++++++",
"++++++++++++++++++++",
"++++++++++++++++++++",
"++++++++++++++++++++",
"++++++++++++++++++++",
"++++++@#$++%&@++++++",
"++++++*=-;>,='++++++",
"++++++)!~{]~^/++++++",
"++++++(_:<<[}(++++++",
"+++++++|12234+++++++",
"++++++56789705++++++",
"++++++abcdefba++++++",
"++++++ghi((jkg++++++",
"++++++(l(++(l(++++++",
"++++++++++++++++++++",
"++++++++++++++++++++",
"++++++++++++++++++++",
"++++++++++++++++++++",
"++++++++++++++++++++",
"++++++++++++++++++++"};
