/* XPM */
static char * close_pressed_xpm[] = {
"20 24 24 1",
" 	c None",
".	c #939393",
"+	c #FFFFFF",
"@	c #DEDEDE s active_color_2",
"#	c #6897BC",
"$	c #5189B5",
"%	c #ECECEC",
"&	c #588FBA",
"*	c #588FBB",
"=	c #5890BB",
"-	c #598FBA",
";	c #6298C1",
">	c #6398C1",
",	c #6297C1",
"'	c #6CA0C8",
")	c #6CA0C7",
"!	c #6C9FC8",
"~	c #76A8CF",
"{	c #75A8CF",
"]	c #76A7CF",
"^	c #76A8CE",
"/	c #7FAFD5",
"(	c #7EAFD5",
"_	c #7FAFD6",
"....................",
"++++++++++++++++++++",
"@@@@@@@@@@@@@@@@@@@@",
"@@@@@@@@@@@@@@@@@@@@",
"@@@@@@@@@@@@@@@@@@@@",
"@@@@@@@@@@@@@@@@@@@@",
"@@@@@@@@@@@@@@@@@@@@",
"@@@@@@@@@@@@@@@@@@@@",
"@@@@@@@@@@@@@@@@@@@@",
"@@@@@@##@@@@##@@@@@@",
"@@@@@@$$#@@#$$@@@@@@",
"@@@@@@%$$##$$%@@@@@@",
"@@@@@@@%&*=-%@@@@@@@",
"@@@@@@@@;>;,@@@@@@@@",
"@@@@@@@#'')!#@@@@@@@",
"@@@@@@#~{%%]^#@@@@@@",
"@@@@@@/(%@@%/_@@@@@@",
"@@@@@@%%@@@@%%@@@@@@",
"@@@@@@@@@@@@@@@@@@@@",
"@@@@@@@@@@@@@@@@@@@@",
"@@@@@@@@@@@@@@@@@@@@",
"@@@@@@@@@@@@@@@@@@@@",
"@@@@@@@@@@@@@@@@@@@@",
"@@@@@@@@@@@@@@@@@@@@"};
