/* XPM */
static char * hide_active_xpm[] = {
"20 24 10 1",
" 	c None",
".	c #939393",
"+	c #FFFFFF",
"@	c #CECECE s active_color_2",
"#	c #BFBFBF",
"$	c #B0B0B0",
"%	c #D4D4D4",
"&	c #EAEAEA",
"*	c #ACACAC",
"=	c #868686",
"....................",
"++++++++++++++++++++",
"@@@@@@@@@@@@@@@@@@@@",
"@@@@@@@@@@@@@@@@@@@@",
"@@@@@@@@@@@@@@@@@@@@",
"@@@@@@@#$$$$#@@@@@@@",
"@@@@@#$%&&&&%$#@@@@@",
"@@@@#*&&&&&&&&*#@@@@",
"@@@@$&&&&&&&&&&$@@@@",
"@@@#%&&&&&&&&&&%#@@@",
"@@@$&&&&&&&&&&&&$@@@",
"@@@$&&&======&&&$@@@",
"@@@$&&&======&&&$@@@",
"@@@$&&&&&&&&&&&&$@@@",
"@@@#%&&&&&&&&&&%#@@@",
"@@@@$&&&&&&&&&&$@@@@",
"@@@@#*&&&&&&&&*#@@@@",
"@@@@@#$%&&&&%$#@@@@@",
"@@@@@@@#$$$$#@@@@@@@",
"@@@@@@@@@@@@@@@@@@@@",
"@@@@@@@@@@@@@@@@@@@@",
"@@@@@@@@@@@@@@@@@@@@",
"@@@@@@@@@@@@@@@@@@@@",
"@@@@@@@@@@@@@@@@@@@@"};
