/* XPM */
static char * maximize_active_xpm[] = {
"20 24 9 1",
" 	c #939393",
".	c #FFFFFF",
"+	c #DEDEDE s active_color_2",
"@	c #969696",
"#	c #9F9F9F",
"$	c #ACACAC",
"%	c #ECECEC",
"&	c #EEEFEF",
"*	c #EFEFEF",
"                    ",
"....................",
"++++++++++++++++++++",
"++++++++++++++++++++",
"++++++++++++++++++++",
"++++++++++++++++++++",
"++++++++++++++++++++",
"++++++++++++++++++++",
"++++++++++++++++++++",
"+++++++++@@+++++++++",
"+++++++++##+++++++++",
"+++++++++$$+++++++++",
"++++++@@@$$@@@++++++",
"++++++$$$$$$$$++++++",
"++++++%%%$$%%%++++++",
"+++++++++$$+++++++++",
"+++++++++$$+++++++++",
"+++++++++&*+++++++++",
"++++++++++++++++++++",
"++++++++++++++++++++",
"++++++++++++++++++++",
"++++++++++++++++++++",
"++++++++++++++++++++",
"++++++++++++++++++++"};
