/* XPM */
static char * maximize_pressed_xpm[] = {
"20 24 13 1",
" 	c None",
".	c #939393",
"+	c #FFFFFF",
"@	c #CECECE s active_color_2",
"#	c #A5A5A5",
"$	c #848484",
"%	c #AAAAAA",
"&	c #D3D3D3",
"*	c #E7E7E7",
"=	c #7C7C7C",
"-	c #D2D2D2",
";	c #EAEAEA",
">	c #6696BA s active_color_1",
"....................",
"++++++++++++++++++++",
"@@@@@@@@@@@@@@@@@@@@",
"@@@@@@@@@@@@@@@@@@@@",
"@@@@@@@@@@@@@@@@@@@@",
"@@@@@@@#$$$$#@@@@@@@",
"@@@@@#$%&**&%$#@@@@@",
"@@@@#=-;;;;;;-=#@@@@",
"@@@@$-;;;;;;;;-$@@@@",
"@@@#%;;;;>>>>;;%#@@@",
"@@@$&;;;;;>>>;;&$@@@",
"@@@$*;;>;;;>>;;*$@@@",
"@@@$*;;>>;;;>;;*$@@@",
"@@@$&;;>>>;;;;;&$@@@",
"@@@#%;;>>>>;;;;%#@@@",
"@@@@$-;;;;;;;;-$@@@@",
"@@@@#=-;;;;;;-=#@@@@",
"@@@@@#$%&**&%$#@@@@@",
"@@@@@@@#$$$$#@@@@@@@",
"@@@@@@@@@@@@@@@@@@@@",
"@@@@@@@@@@@@@@@@@@@@",
"@@@@@@@@@@@@@@@@@@@@",
"@@@@@@@@@@@@@@@@@@@@",
"@@@@@@@@@@@@@@@@@@@@"};
