/* XPM */
static char * maximize_pressed_xpm[] = {
"20 24 10 1",
" 	c #939393",
".	c #FFFFFF",
"+	c #DEDEDE s active_color_2",
"@	c #5189B5",
"#	c #528AB5",
"$	c #5C92BC",
"%	c #70A3CB",
"&	c #F4F4F4",
"*	c #8CB7D8",
"=	c #93BDDD",
"                    ",
"....................",
"++++++++++++++++++++",
"++++++++++++++++++++",
"++++++++++++++++++++",
"++++++++++++++++++++",
"++++++++++++++++++++",
"++++++++++++++++++++",
"++++++++++++++++++++",
"+++++++++@@+++++++++",
"+++++++++##+++++++++",
"+++++++++$$+++++++++",
"++++++$$$$$$$$++++++",
"++++++%%%%%%%%++++++",
"++++++&&&%%&&&++++++",
"+++++++++**+++++++++",
"+++++++++==+++++++++",
"+++++++++&&+++++++++",
"++++++++++++++++++++",
"++++++++++++++++++++",
"++++++++++++++++++++",
"++++++++++++++++++++",
"++++++++++++++++++++",
"++++++++++++++++++++"};
