/* XPM */
static char * menu_pressed_xpm[] = {
"20 24 27 1",
" 	c #939393",
".	c #FFFFFF",
"+	c #DEDEDE s active_color_2",
"@	c #84A8C3",
"#	c #528AB5",
"$	c #88AAC5",
"%	c #EBECED",
"&	c #7BA5C8",
"*	c #5C92BC",
"=	c #86AECC",
"-	c #DFDFDF",
";	c #E1E9EE",
">	c #71A2C6",
",	c #669BC3",
"'	c #7CA9CB",
")	c #E8ECEF",
"!	c #E1E1E1",
"~	c #CEDEEA",
"{	c #71A4CB",
"]	c #78AACD",
"^	c #E0E8EE",
"/	c #E0E0E0",
"(	c #E6E6E6",
"_	c #B3CEE3",
":	c #D1E0EB",
"<	c #E2E2E2",
"[	c #EDEDED",
"                    ",
"....................",
"++++++++++++++++++++",
"++++++++++++++++++++",
"++++++++++++++++++++",
"++++++++++++++++++++",
"++++++++++++++++++++",
"++++++++++++++++++++",
"++++++++++++++++++++",
"++++++++++++++++++++",
"++++++++++++++++++++",
"++++++@######$++++++",
"++++++%&****=%++++++",
"++++++-;>,,')+++++++",
"+++++++!~{]^/+++++++",
"++++++++(_:<++++++++",
"+++++++++[(+++++++++",
"++++++++++++++++++++",
"++++++++++++++++++++",
"++++++++++++++++++++",
"++++++++++++++++++++",
"++++++++++++++++++++",
"++++++++++++++++++++",
"++++++++++++++++++++"};
