/* XPM */
static char * menu_prelight_xpm[] = {
"20 24 23 1",
" 	c #939393",
".	c #FFFFFF",
"+	c #DEDEDE s active_color_2",
"@	c #8C8C8C",
"#	c #5E5E5E",
"$	c #8F8F8F",
"%	c #EAEAEA",
"&	c #727272",
"*	c #959595",
"=	c #ECECEC",
"-	c #DFDFDF",
";	c #E4E4E4",
">	c #858585",
",	c #7C7C7C",
"'	c #E1E1E1",
")	c #D4D4D4",
"!	c #888888",
"~	c #E0E0E0",
"{	c #E6E6E6",
"]	c #BEBEBE",
"^	c #D8D8D8",
"/	c #E2E2E2",
"(	c #EDEDED",
"                    ",
"....................",
"++++++++++++++++++++",
"++++++++++++++++++++",
"++++++++++++++++++++",
"++++++++++++++++++++",
"++++++++++++++++++++",
"++++++++++++++++++++",
"++++++++++++++++++++",
"++++++++++++++++++++",
"++++++++++++++++++++",
"++++++@######$++++++",
"++++++%@&&&&*=++++++",
"++++++-;>,,$%+++++++",
"+++++++')!$;~+++++++",
"++++++++{]^/++++++++",
"+++++++++({+++++++++",
"++++++++++++++++++++",
"++++++++++++++++++++",
"++++++++++++++++++++",
"++++++++++++++++++++",
"++++++++++++++++++++",
"++++++++++++++++++++",
"++++++++++++++++++++"};
