/* XPM */
static char * shade_pressed_xpm[] = {
"20 24 23 1",
" 	c None",
".	c #8D8D8D",
"+	c #FFFFFF",
"@	c #DEDEDE s active_color_2",
"#	c #70A2C8",
"$	c #77A7CA",
"%	c #6F9FC3",
"&	c #6599C0",
"*	c #7BA6C7",
"=	c #7AA3C4",
"-	c #5B90B9",
";	c #6599C1",
">	c #669AC1",
",	c #84ABCA",
"'	c #83A6C1",
")	c #5188B2",
"!	c #88A8C3",
"~	c #EAEBEC",
"{	c #E1E8EC",
"]	c #E8EAED",
"^	c #6FA1C8",
"/	c #8BB5D5",
"(	c #91BBDA",
"....................",
"++++++++++++++++++++",
"@@@@@@@@@@@@@@@@@@@@",
"@@@@@@@@@@@@@@@@@@@@",
"@@@@@@@@@@@@@@@@@@@@",
"@@@@@@@@@@@@@@@@@@@@",
"@@@@@@@@@@@@@@@@@@@@",
"@@@@@@@@@@@@@@@@@@@@",
"@@@@@@@@@@@@@@@@@@@@",
"@@@@@@@@@#$@@@@@@@@@",
"@@@@@@@@%&&*@@@@@@@@",
"@@@@@@@=-;>-,@@@@@@@",
"@@@@@@')!;;!)!@@@@@@",
"@@@@@@~{];;]]~@@@@@@",
"@@@@@@@@@^^@@@@@@@@@",
"@@@@@@@@@//@@@@@@@@@",
"@@@@@@@@@((@@@@@@@@@",
"@@@@@@@@@]]@@@@@@@@@",
"@@@@@@@@@@@@@@@@@@@@",
"@@@@@@@@@@@@@@@@@@@@",
"@@@@@@@@@@@@@@@@@@@@",
"@@@@@@@@@@@@@@@@@@@@",
"@@@@@@@@@@@@@@@@@@@@",
"@@@@@@@@@@@@@@@@@@@@"};
