/* XPM */
static char * shade_toggled_active_xpm[] = {
"20 24 20 1",
" 	c None",
".	c #8D8D8D",
"+	c #FFFFFF",
"@	c #DEDEDE s active_color_2",
"#	c #909090",
"$	c #7C7C7C",
"%	c #8C8C8C",
"&	c #5E5E5E",
"*	c #EAEAEA",
"=	c #727272",
"-	c #959595",
";	c #ECECEC",
">	c #E4E4E4",
",	c #848484",
"'	c #8E8E8E",
")	c #D4D4D4",
"!	c #878787",
"~	c #E3E3E3",
"{	c #BDBDBD",
"]	c #D8D8D8",
"....................",
"++++++++++++++++++++",
"@@@@@@@@@@@@@@@@@@@@",
"@@@@@@@@@@@@@@@@@@@@",
"@@@@@@@@@@@@@@@@@@@@",
"@@@@@@@@@@@@@@@@@@@@",
"@@@@@@@@@@@@@@@@@@@@",
"@@@@@@@@@@@@@@@@@@@@",
"@@@@@@@@@@@@@@@@@@@@",
"@@@@@@@@@##@@@@@@@@@",
"@@@@@@@@@$$@@@@@@@@@",
"@@@@@@@@@$$@@@@@@@@@",
"@@@@@@@@@$$@@@@@@@@@",
"@@@@@@%&#$$#&#@@@@@@",
"@@@@@@*%=$$=-;@@@@@@",
"@@@@@@@>,$$'*@@@@@@@",
"@@@@@@@@)!'~@@@@@@@@",
"@@@@@@@@@{]@@@@@@@@@",
"@@@@@@@@@@@@@@@@@@@@",
"@@@@@@@@@@@@@@@@@@@@",
"@@@@@@@@@@@@@@@@@@@@",
"@@@@@@@@@@@@@@@@@@@@",
"@@@@@@@@@@@@@@@@@@@@",
"@@@@@@@@@@@@@@@@@@@@"};
