/* XPM */
static char * top_left_inactive_xpm[] = {
"9 24 4 1",
" 	c None",
".	c #939393",
"+	c #FFFFFF",
"@	c #DEDEDE s active_color_2",
"      ...",
"    ..+++",
"   .@@@@@",
"  .@@@@@@",
"  .@@@@@@",
" .@@@@@@@",
" .@@@@@@@",
" .@@@@@@@",
" .@@@@@@@",
" .@@@@@@@",
" .@@@@@@@",
" .@@@@@@@",
" .@@@@@@@",
" .@@@@@@@",
" .@@@@@@@",
" .@@@@@@@",
" .@@@@@@@",
" .@@@@@@@",
" .@@@@@@@",
" .@@@@@@@",
" .@@@@@@@",
" .@@@@@@@",
" .@@@@@@@",
" .@@@@@@@"};
