/* XPM */
static char * top_right_active_xpm[] = {
"5 24 5 1",
" 	c None",
".	c #939393",
"+	c #FFFFFF",
"@	c #DEDEDE s active_color_2",
"#	c #EEEEEE",
"...  ",
"+++. ",
"@@@#.",
"@@@@.",
"@@@@.",
"@@@@.",
"@@@@.",
"@@@@.",
"@@@@.",
"@@@@.",
"@@@@.",
"@@@@.",
"@@@@.",
"@@@@.",
"@@@@.",
"@@@@.",
"@@@@.",
"@@@@.",
"@@@@.",
"@@@@.",
"@@@@.",
"@@@@.",
"@@@@.",
"@@@@."};
