/* XPM */
static char * title_5_inactive_xpm[] = {
"2 34 4 1",
" 	c None",
".	c #939393",
"+	c #FFFFFF",
"@	c #CECECE s active_color_2",
"..",
"++",
"@@",
"@@",
"@@",
"@@",
"@@",
"@@",
"@@",
"@@",
"@@",
"@@",
"@@",
"@@",
"@@",
"@@",
"@@",
"@@",
"@@",
"@@",
"@@",
"@@",
"@@",
"@@",
"@@",
"@@",
"@@",
"@@",
"@@",
"@@",
"@@",
"@@",
"@@",
"@@"};
"@@"};
